<svg width="24" height="24" viewBox="0 0 24 24" fill="none" xmlns="http://www.w3.org/2000/svg">
<path fill-rule="evenodd" clip-rule="evenodd" d="M3.14568 13.1578C3.14568 8.27437 7.10447 4.31558 11.9879 4.31558C16.8713 4.31558 20.8301 8.27437 20.8301 13.1578C20.8301 18.0412 16.8713 22 11.9879 22C7.10447 22 3.14568 18.0412 3.14568 13.1578ZM4.61938 13.1578C4.61938 17.2273 7.91838 20.5263 11.9879 20.5263C13.9421 20.5263 15.8163 19.75 17.1982 18.3681C18.5801 16.9862 19.3564 15.112 19.3564 13.1578C19.3564 9.08828 16.0574 5.78928 11.9879 5.78928C7.91838 5.78928 4.61938 9.08828 4.61938 13.1578Z" fill="black"/>
<path d="M9.67909 9.41459C9.38876 9.14406 8.93634 9.15204 8.65573 9.43264C8.37513 9.71325 8.36714 10.1657 8.63768 10.456L11.251 13.0694V17.0877C11.251 17.4946 11.5809 17.8245 11.9879 17.8245C12.3948 17.8245 12.7247 17.4946 12.7247 17.0877V12.7648C12.7246 12.5694 12.6468 12.3821 12.5086 12.2441L9.67909 9.41459Z" fill="black"/>
<path d="M21.3508 5.78928C20.1378 4.17165 18.5267 2.89561 16.6743 2.08538C16.4935 2.00343 16.2873 1.99788 16.1023 2.07001C15.9174 2.14213 15.7694 2.28582 15.6918 2.46854C15.607 2.64897 15.5999 2.85631 15.6724 3.04206C15.7448 3.22781 15.8904 3.37566 16.075 3.45101C17.693 4.16295 19.1006 5.2795 20.162 6.69315C20.3012 6.8787 20.5196 6.98789 20.7515 6.98789C20.911 6.98861 21.0664 6.93683 21.1936 6.84052C21.3573 6.7245 21.4665 6.54678 21.4962 6.34839C21.5258 6.15 21.4734 5.9481 21.3508 5.78928Z" fill="black"/>
<path d="M3.80393 6.6735C4.86537 5.25985 6.27291 4.1433 7.891 3.43136C8.07559 3.35601 8.22113 3.20816 8.29358 3.02241C8.36602 2.83667 8.359 2.62932 8.27416 2.44889C8.19659 2.26618 8.04857 2.12249 7.86364 2.05036C7.6787 1.97824 7.47249 1.98378 7.29169 2.06573C5.44056 2.8829 3.83274 4.16577 2.62497 5.78928C2.41275 6.10563 2.47665 6.53159 2.77234 6.77175C2.89955 6.86805 3.05491 6.91984 3.21445 6.91912C3.43806 6.93107 3.65497 6.84069 3.80393 6.6735Z" fill="black"/>
</svg>
