<svg width="24" height="24" viewBox="0 0 24 24" fill="none" xmlns="http://www.w3.org/2000/svg">
<path d="M6.4687 8.6895C10.1203 8.6895 13.772 8.6895 17.5343 8.6895C17.5379 10.7411 17.5379 10.7411 17.5416 12.8342C17.5426 13.266 17.5437 13.6977 17.5448 14.1426C17.5453 14.6701 17.5453 14.6701 17.5454 14.9171C17.5455 15.0895 17.546 15.2619 17.5466 15.4343C17.5474 15.6544 17.5476 15.8745 17.5475 16.0946C17.5475 16.1752 17.5477 16.2559 17.5482 16.3365C17.5533 17.2908 17.5533 17.2908 17.257 17.6579C16.9935 17.9131 16.7174 18.0079 16.3588 18.0055C16.3279 18.0055 16.2969 18.0054 16.265 18.0054C16.1661 18.0051 16.0673 18.0046 15.9684 18.0042C15.9014 18.004 15.8343 18.0038 15.7673 18.0036C15.603 18.0032 15.4387 18.0025 15.2744 18.0017C15.2748 18.0553 15.2748 18.0553 15.2752 18.11C15.2775 18.4482 15.2793 18.7864 15.2805 19.1246C15.2811 19.2984 15.2819 19.4722 15.2832 19.6461C15.2845 19.8141 15.2852 19.982 15.2855 20.1501C15.2857 20.2139 15.2861 20.2777 15.2868 20.3416C15.2915 20.8342 15.2648 21.2781 14.9237 21.6643C14.6546 21.8895 14.3896 21.9914 14.0373 21.9906C14.01 21.9905 13.9826 21.9905 13.9544 21.9904C13.6421 21.9831 13.3537 21.8927 13.1314 21.6643C12.8555 21.3026 12.7755 20.9725 12.7763 20.5186C12.7763 20.4912 12.7763 20.4638 12.7763 20.4355C12.7763 20.346 12.7766 20.2564 12.7769 20.1668C12.777 20.1043 12.7771 20.0418 12.7771 19.9792C12.7773 19.8155 12.7776 19.6517 12.7781 19.4879C12.7785 19.291 12.7787 19.0941 12.779 18.8972C12.7793 18.5987 12.7801 18.3002 12.7808 18.0017C12.2664 18.0017 11.7521 18.0017 11.2222 18.0017C11.2231 18.1997 11.224 18.3977 11.225 18.6017C11.2254 18.7278 11.2257 18.8538 11.226 18.9799C11.2265 19.1796 11.227 19.3794 11.2281 19.5791C11.229 19.7403 11.2294 19.9015 11.2296 20.0626C11.2298 20.1239 11.23 20.1851 11.2305 20.2463C11.237 21.228 11.237 21.228 10.8935 21.6156C10.8605 21.6445 10.8276 21.6734 10.7936 21.7032C10.7639 21.7305 10.7342 21.7579 10.7035 21.786C10.3816 22.0106 10.0057 22.0272 9.62473 21.976C9.47831 21.9302 9.36085 21.8681 9.2351 21.7812C9.19974 21.7595 9.16438 21.7378 9.12795 21.7154C8.8271 21.4062 8.7183 21.0438 8.71973 20.6203C8.71971 20.5918 8.7197 20.5632 8.71969 20.5338C8.71975 20.4406 8.72035 20.3475 8.72096 20.2543C8.72111 20.1892 8.72122 20.1241 8.7213 20.0591C8.72159 19.8887 8.72236 19.7183 8.72322 19.5479C8.72402 19.3737 8.72438 19.1995 8.72477 19.0253C8.7256 18.6841 8.72693 18.3429 8.72857 18.0017C8.68853 18.0029 8.64849 18.0042 8.60723 18.0054C8.45649 18.0097 8.30575 18.0124 8.15497 18.0146C8.09012 18.0157 8.02528 18.0173 7.96046 18.0194C7.50785 18.0332 7.15157 18.0066 6.78395 17.7074C6.39939 17.3125 6.44722 16.7573 6.45101 16.249C6.45106 16.165 6.45104 16.0811 6.45095 15.9972C6.45092 15.7733 6.45182 15.5495 6.45292 15.3257C6.45381 15.1153 6.45385 14.9049 6.45396 14.6945C6.45478 14.0801 6.45695 13.4657 6.45896 12.8513C6.46218 11.4779 6.46539 10.1045 6.4687 8.6895Z" fill="#010002"/>
<path d="M8.48262 2C8.7161 2.04846 8.82682 2.29174 8.95443 2.48163C9.02465 2.58997 9.09358 2.69902 9.16204 2.80849C9.18519 2.84518 9.20835 2.88187 9.2322 2.91967C9.29832 3.02453 9.36417 3.12955 9.42991 3.23465C9.44974 3.26633 9.46956 3.29802 9.48999 3.33067C9.53494 3.40254 9.57984 3.47444 9.62473 3.54635C9.67184 3.53083 9.71895 3.51531 9.76749 3.49932C11.3327 2.98986 12.8195 3.0192 14.3782 3.54635C14.4 3.51084 14.4218 3.47533 14.4443 3.43875C14.644 3.11534 14.8496 2.79621 15.0601 2.47973C15.0839 2.44384 15.1077 2.40794 15.1323 2.37096C15.1547 2.33744 15.1771 2.30393 15.2001 2.26939C15.2201 2.23949 15.2401 2.20959 15.2606 2.17878C15.3134 2.10471 15.3134 2.10471 15.3913 2.02679C15.5082 2.01705 15.5082 2.01705 15.6251 2.02679C15.703 2.10471 15.703 2.10471 15.7184 2.22921C15.7002 2.4046 15.6364 2.50725 15.535 2.64533C15.4994 2.69618 15.4639 2.74707 15.4284 2.79799C15.4097 2.82447 15.391 2.85096 15.3717 2.87825C15.2704 3.02343 15.1737 3.17155 15.0771 3.31988C15.0586 3.34787 15.04 3.37587 15.0209 3.40471C15.0036 3.43111 14.9864 3.45751 14.9686 3.48471C14.9534 3.50793 14.9381 3.53114 14.9223 3.55506C14.882 3.62933 14.8628 3.69764 14.8458 3.78013C14.9038 3.81065 14.9038 3.81065 14.963 3.84177C16.0811 4.44225 16.9509 5.3764 17.3784 6.58549C17.5035 7.01376 17.5806 7.43929 17.5781 7.88589C17.5783 7.91356 17.5784 7.94123 17.5786 7.96975C17.5782 8.1731 17.5782 8.1731 17.5343 8.26091C13.8826 8.26091 10.231 8.26091 6.4687 8.26091C6.24292 7.58354 6.55886 6.65175 6.85392 6.03955C7.34773 5.05928 8.17035 4.25668 9.15717 3.78013C9.13356 3.66539 9.0986 3.58239 9.03434 3.48471C9.01711 3.45831 8.99987 3.43191 8.98211 3.40471C8.95425 3.36272 8.95425 3.36272 8.92582 3.31988C8.90687 3.29078 8.88792 3.26168 8.8684 3.2317C8.77278 3.08541 8.67538 2.94074 8.57455 2.79799C8.55661 2.77224 8.53868 2.74648 8.5202 2.71995C8.48628 2.67146 8.45184 2.62333 8.4168 2.57565C8.30449 2.41439 8.2759 2.29968 8.29998 2.10471C8.3779 2.02679 8.3779 2.02679 8.48262 2ZM9.04028 5.45555C8.93734 5.6134 8.89602 5.73546 8.92339 5.92311C9.01939 6.10773 9.12407 6.22361 9.31302 6.31274C9.49251 6.32575 9.62499 6.29766 9.77814 6.20316C9.92458 6.04785 9.95786 5.91154 9.95439 5.70197C9.92301 5.54372 9.82167 5.44226 9.70265 5.33866C9.47214 5.2234 9.22356 5.28973 9.04028 5.45555ZM14.1055 5.53348C14.0378 5.66894 14.0488 5.81396 14.0665 5.96207C14.1588 6.15371 14.2564 6.24083 14.4562 6.31274C14.6081 6.3349 14.6747 6.32065 14.8117 6.24943C14.9374 6.14563 15.0098 6.07103 15.0796 5.92311C15.0926 5.74362 15.0645 5.61114 14.97 5.45799C14.8147 5.31156 14.6784 5.27828 14.4688 5.28174C14.3106 5.31312 14.2091 5.41446 14.1055 5.53348Z" fill="#010002"/>
<path d="M20.1448 8.80639C20.4413 9.09444 20.537 9.43367 20.5493 9.84166C20.55 9.9374 20.55 10.0331 20.5496 10.1289C20.5497 10.182 20.5499 10.2352 20.5502 10.2884C20.5507 10.4315 20.5505 10.5746 20.5501 10.7178C20.5498 10.8683 20.5501 11.0188 20.5503 11.1693C20.5505 11.4219 20.5502 11.6745 20.5497 11.9272C20.549 12.2184 20.5492 12.5095 20.5499 12.8007C20.5504 13.0518 20.5505 13.3027 20.5502 13.5537C20.55 13.7032 20.55 13.8527 20.5504 14.0022C20.5507 14.1428 20.5505 14.2833 20.5498 14.4239C20.5496 14.4995 20.5499 14.575 20.5503 14.6506C20.5472 15.0777 20.4731 15.4533 20.1838 15.7808C19.8153 16.0892 19.4391 16.129 18.9759 16.0925C18.6593 16.0177 18.4163 15.7964 18.221 15.5446C18.112 15.3476 18.07 15.1765 18.0693 14.952C18.069 14.9037 18.0687 14.8554 18.0683 14.8057C18.0684 14.7527 18.0684 14.6997 18.0684 14.6467C18.0682 14.5904 18.0679 14.5342 18.0676 14.478C18.067 14.3257 18.0668 14.1734 18.0667 14.0211C18.0667 13.9257 18.0665 13.8304 18.0663 13.7351C18.0656 13.4022 18.0653 13.0693 18.0653 12.7364C18.0654 12.4268 18.0645 12.1171 18.0633 11.8075C18.0623 11.5411 18.0619 11.2747 18.0619 11.0084C18.0619 10.8495 18.0617 10.6906 18.0609 10.5318C18.0601 10.3822 18.0601 10.2327 18.0607 10.0832C18.0608 10.0285 18.0606 9.97392 18.0601 9.91929C18.0571 9.54312 18.1035 9.25545 18.3014 8.93302C18.4922 8.74733 18.7148 8.59608 18.9759 8.53365C19.0153 8.52401 19.0547 8.51436 19.0952 8.50443C19.4872 8.47954 19.8377 8.55492 20.1448 8.80639Z" fill="#010002"/>
<path d="M5.56281 8.82344C5.59174 8.85639 5.62067 8.88934 5.65048 8.92328C5.6778 8.95302 5.70512 8.98275 5.73327 9.01338C5.94809 9.32129 5.94026 9.62608 5.93896 9.98898C5.93918 10.0453 5.93946 10.1016 5.93977 10.1578C5.94047 10.31 5.94043 10.4621 5.9402 10.6143C5.94008 10.7416 5.94032 10.8689 5.94056 10.9963C5.9411 11.2968 5.94104 11.5973 5.9406 11.8978C5.94015 12.2072 5.9407 12.5165 5.94174 12.8259C5.94261 13.0922 5.94287 13.3584 5.94264 13.6247C5.94251 13.7834 5.9426 13.9421 5.94327 14.1009C5.94388 14.2502 5.94372 14.3995 5.94299 14.5488C5.94284 14.6034 5.94296 14.658 5.94337 14.7126C5.94642 15.1531 5.87495 15.4618 5.5727 15.7889C5.24825 16.0792 4.89785 16.1188 4.48038 16.0997C4.20599 16.0741 3.96825 15.9384 3.78024 15.7418C3.49324 15.3424 3.45689 14.992 3.45783 14.5112C3.45766 14.4581 3.45746 14.405 3.45723 14.3519C3.45671 14.2084 3.45668 14.065 3.45678 13.9215C3.45683 13.8014 3.45663 13.6812 3.45645 13.5611C3.45602 13.2774 3.456 12.9937 3.45623 12.71C3.45647 12.4182 3.45599 12.1265 3.45516 11.8347C3.45447 11.5834 3.45424 11.3321 3.45437 11.0808C3.45444 10.9311 3.45434 10.7814 3.45379 10.6317C3.4533 10.4907 3.45338 10.3498 3.45389 10.2088C3.45402 10.1331 3.45359 10.0574 3.45312 9.98169C3.45556 9.57116 3.50458 9.2042 3.7772 8.88462C4.27082 8.4077 5.04033 8.36033 5.56281 8.82344Z" fill="#010002"/>
</svg>
