<svg width="24" height="24" viewBox="0 0 24 24" fill="none" xmlns="http://www.w3.org/2000/svg">
<path fill-rule="evenodd" clip-rule="evenodd" d="M5.81 12.4492C4.94276 12.4492 4.14204 12.7408 3.50079 13.2311V12.1808C3.46079 9.86078 4.31079 7.69078 5.91079 6.06078C7.50079 4.44078 9.64079 3.55078 11.9508 3.55078C16.6708 3.55078 20.5008 7.39078 20.5008 12.1008V13.2323C19.8593 12.7413 19.0579 12.4492 18.19 12.4492H18.06C15.96 12.4492 14.25 14.1592 14.25 16.2592V18.1392C14.25 20.2392 15.96 21.9492 18.06 21.9492H18.19C20.29 21.9492 22 20.2392 22 18.1392V17.8347C22.0005 17.8234 22.0008 17.8121 22.0008 17.8008V12.1008C22.0008 6.56078 17.4908 2.05078 11.9508 2.05078C9.24079 2.05078 6.72079 3.10078 4.84079 5.01078C2.96079 6.93078 1.95079 9.49078 2.00079 12.2008V16.1809C2.00027 16.2069 2 16.233 2 16.2592V18.1392C2 20.2392 3.71 21.9492 5.81 21.9492H5.94C8.04 21.9492 9.75 20.2392 9.75 18.1392V16.2592C9.75 14.1592 8.04 12.4492 5.94 12.4492H5.81ZM3.5 18.1392V17.9264C3.50053 17.9146 3.50079 17.9027 3.50079 17.8908V16.1983C3.5333 14.9547 4.55878 13.9492 5.81 13.9492H5.94C7.21157 13.9492 8.25 14.9876 8.25 16.2592V18.1392C8.25 19.4108 7.21157 20.4492 5.94 20.4492H5.81C4.53843 20.4492 3.5 19.4108 3.5 18.1392ZM18.06 13.9492H18.19C19.4616 13.9492 20.5 14.9876 20.5 16.2592V18.1392C20.5 19.4108 19.4616 20.4492 18.19 20.4492H18.06C16.7884 20.4492 15.75 19.4108 15.75 18.1392V16.2592C15.75 14.9876 16.7884 13.9492 18.06 13.9492Z" fill="black"/>
</svg>
