<svg width="17" height="16" viewBox="0 0 17 16" fill="none" xmlns="http://www.w3.org/2000/svg">
<path fill-rule="evenodd" clip-rule="evenodd" d="M14.9622 10.3473V4.19113C14.9622 2.61317 13.6319 1.33398 11.9908 1.33398H5.04955C3.40848 1.33398 2.07812 2.61317 2.07812 4.19113V12.2216C2.07812 13.5723 3.21691 14.6673 4.62167 14.6673H14.368C14.6962 14.6673 14.9622 14.4115 14.9622 14.0959C14.9622 13.7803 14.6962 13.5245 14.368 13.5245H4.62167C3.87334 13.5245 3.2667 12.9412 3.2667 12.2216C3.2667 11.5021 3.87334 10.9187 4.62167 10.9187H14.368C14.6962 10.9187 14.9622 10.6629 14.9622 10.3473ZM3.2667 10.1568V4.19113C3.2667 3.24435 4.06491 2.47684 5.04955 2.47684H11.9908C12.9755 2.47684 13.7737 3.24435 13.7737 4.19113V9.77589H4.62167C4.14161 9.77698 3.67174 9.90909 3.2667 10.1568Z" fill="white"/>
<path d="M4.02738 12.2216C4.02738 11.906 4.29345 11.6502 4.62167 11.6502H13.3933C13.7215 11.6502 13.9876 11.906 13.9876 12.2216C13.9876 12.5372 13.7215 12.793 13.3933 12.793H4.62167C4.29345 12.793 4.02738 12.5372 4.02738 12.2216Z" fill="white"/>
</svg>
