<svg width="24" height="24" viewBox="0 0 24 24" fill="none" xmlns="http://www.w3.org/2000/svg">
<path fill-rule="evenodd" clip-rule="evenodd" d="M21.5829 15.52V6.28571C21.5829 3.91878 19.6641 2 17.2971 2H7.28571C4.91878 2 3 3.91878 3 6.28571V18.3314C3 20.3575 4.64248 22 6.66857 22H20.7257C21.1991 22 21.5829 21.6162 21.5829 21.1429C21.5829 20.6695 21.1991 20.2857 20.7257 20.2857H6.66857C5.58925 20.2857 4.71429 19.4108 4.71429 18.3314C4.71429 17.2521 5.58925 16.3771 6.66857 16.3771H20.7257C21.1991 16.3771 21.5829 15.9934 21.5829 15.52ZM4.71429 15.2343V6.28571C4.71429 4.86555 5.86555 3.71429 7.28571 3.71429H17.2971C18.7173 3.71429 19.8686 4.86555 19.8686 6.28571V14.6629H6.66857C5.97618 14.6645 5.29849 14.8627 4.71429 15.2343Z" fill="black"/>
<path d="M5.81143 18.3314C5.81143 17.858 6.19518 17.4743 6.66857 17.4743H19.32C19.7934 17.4743 20.1771 17.858 20.1771 18.3314C20.1771 18.8048 19.7934 19.1886 19.32 19.1886H6.66857C6.19518 19.1886 5.81143 18.8048 5.81143 18.3314Z" fill="black"/>
</svg>
