<svg width="24" height="24" viewBox="0 0 24 24" fill="none" xmlns="http://www.w3.org/2000/svg">
<path fill-rule="evenodd" clip-rule="evenodd" d="M2.80661 2H3.8821L3.93587 2.01134C5.42667 2.04184 6.72927 3.0814 7.16233 4.58627L7.37743 5.36896H18.5947C19.5853 5.37371 20.5259 5.82839 21.1759 6.61672C21.8241 7.41004 22.1109 8.46266 21.961 9.49791L21.3157 14.194C21.1008 15.9941 19.6588 17.3503 17.9387 17.3701H11.6148C10.1041 17.3642 8.77366 16.3199 8.33461 14.7952L5.61363 5.1194C5.40527 4.28928 4.69625 3.70868 3.8821 3.70149H2.80661C2.36113 3.70149 2 3.3206 2 2.85075C2 2.38089 2.36113 2 2.80661 2ZM9.88331 14.2507C10.1116 15.0584 10.8158 15.612 11.6148 15.6119H17.9387C18.8289 15.6018 19.5827 14.9169 19.724 13.9899L20.3693 9.28239C20.4572 8.73443 20.3139 8.17332 19.977 7.74603C19.6401 7.31874 19.1431 7.06786 18.6163 7.0591H7.8614L9.88331 14.2507Z" fill="black"/>
<path d="M11.3675 18.7313C10.7735 18.7313 10.292 19.2392 10.292 19.8657C10.292 20.4921 10.7735 21 11.3675 21C11.9615 21 12.443 20.4921 12.443 19.8657C12.443 19.2392 11.9615 18.7313 11.3675 18.7313Z" fill="black"/>
<path d="M17.8204 18.7313C17.2264 18.7313 16.7449 19.2392 16.7449 19.8657C16.7449 20.4921 17.2264 21 17.8204 21C18.4144 21 18.8959 20.4921 18.8959 19.8657C18.8959 19.2392 18.4144 18.7313 17.8204 18.7313Z" fill="black"/>
</svg>
