<svg width="24" height="24" viewBox="0 0 24 24" fill="none" xmlns="http://www.w3.org/2000/svg">
<path fill-rule="evenodd" clip-rule="evenodd" d="M6.49309 2.23331C7.32672 2.23357 8.09151 2.69138 8.47915 3.4222L10.6896 7.64442C11.0495 8.33229 11.0216 9.15609 10.6161 9.81858C10.2106 10.4811 9.48589 10.8866 8.70356 10.8889H4.28263C3.49232 10.9023 2.75316 10.503 2.33672 9.83776C1.92028 9.17249 1.88799 8.33934 2.2517 7.64442L4.49582 3.4222C4.88533 2.68784 5.65544 2.22942 6.49309 2.23331ZM8.70356 9.24442C8.90051 9.24556 9.08363 9.14434 9.18604 8.97775V8.95553C9.28821 8.80394 9.30514 8.61119 9.23093 8.44442L6.9868 4.2222C6.90257 4.04454 6.72485 3.92865 6.52676 3.9222C6.31649 3.9149 6.12045 4.02706 6.02183 4.21109L3.7777 8.43331C3.68702 8.6066 3.69482 8.81429 3.79825 8.98043C3.90167 9.14657 4.08555 9.24679 4.28263 9.24442H8.70356Z" fill="black"/>
<path fill-rule="evenodd" clip-rule="evenodd" d="M22 6.44444C22 8.89904 19.9905 10.8889 17.5117 10.8889C15.033 10.8889 13.0235 8.89904 13.0235 6.44444C13.0235 3.98985 15.033 2 17.5117 2C19.9905 2 22 3.98985 22 6.44444ZM20.3169 6.44444C20.3169 4.91032 19.061 3.66667 17.5117 3.66667C16.7678 3.66667 16.0543 3.95932 15.5282 4.48026C15.0021 5.00119 14.7066 5.70773 14.7066 6.44444C14.7066 7.97857 15.9625 9.22222 17.5117 9.22222C19.061 9.22222 20.3169 7.97857 20.3169 6.44444Z" fill="black"/>
<path fill-rule="evenodd" clip-rule="evenodd" d="M15.2676 13.1111H19.7559C20.9953 13.1111 22 14.106 22 15.3333V19.7778C22 21.0051 20.9953 22 19.7559 22H15.2676C14.0282 22 13.0235 21.0051 13.0235 19.7778V15.3333C13.0235 14.106 14.0282 13.1111 15.2676 13.1111ZM19.7559 20.3333C20.0657 20.3333 20.3169 20.0846 20.3169 19.7778V15.3333C20.3169 15.0265 20.0657 14.7778 19.7559 14.7778H15.2676C14.9578 14.7778 14.7066 15.0265 14.7066 15.3333V19.7778C14.7066 20.0846 14.9578 20.3333 15.2676 20.3333H19.7559Z" fill="black"/>
<path d="M10.454 13.2889C10.2977 13.1301 10.0832 13.0405 9.85928 13.0405C9.63533 13.0405 9.42088 13.1301 9.26459 13.2889L6.49309 16.0333L3.7216 13.2889C3.39002 12.9829 2.87331 12.992 2.55283 13.3093C2.23236 13.6267 2.22324 14.1383 2.53221 14.4667L5.28127 17.2111L2.53221 19.9556C2.37182 20.1103 2.28135 20.3227 2.28135 20.5444C2.28135 20.7662 2.37182 20.9786 2.53221 21.1333C2.69123 21.2876 2.90427 21.3752 3.12691 21.3778C3.34907 21.373 3.56132 21.2857 3.7216 21.1333L6.49309 18.3889L9.26459 21.1333C9.42361 21.2876 9.63665 21.3752 9.85928 21.3778C10.0814 21.373 10.2937 21.2857 10.454 21.1333C10.7821 20.808 10.7821 20.2809 10.454 19.9556L7.68248 17.2111L10.454 14.4667C10.7821 14.1413 10.7821 13.6142 10.454 13.2889Z" fill="black"/>
</svg>
