<svg width="24" height="24" viewBox="0 0 24 24" fill="none" xmlns="http://www.w3.org/2000/svg">
<path d="M16.7563 9.21937C16.8337 9.28903 16.8952 9.37175 16.9371 9.46279C16.9791 9.55384 17.0007 9.65144 17.0007 9.75C17.0007 9.84856 16.9791 9.94616 16.9371 10.0372C16.8952 10.1283 16.8337 10.211 16.7563 10.2806L10.9229 15.5306C10.8455 15.6004 10.7536 15.6557 10.6525 15.6934C10.5513 15.7312 10.4428 15.7506 10.3333 15.7506C10.2238 15.7506 10.1154 15.7312 10.0142 15.6934C9.91305 15.6557 9.82114 15.6004 9.74375 15.5306L7.24375 13.2806C7.08738 13.1399 6.99954 12.949 6.99954 12.75C6.99954 12.551 7.08738 12.3601 7.24375 12.2194C7.40012 12.0786 7.6122 11.9996 7.83333 11.9996C8.05447 11.9996 8.26655 12.0786 8.42292 12.2194L10.3333 13.9397L15.5771 9.21937C15.6545 9.14964 15.7464 9.09432 15.8476 9.05658C15.9487 9.01884 16.0572 8.99941 16.1667 8.99941C16.2762 8.99941 16.3846 9.01884 16.4858 9.05658C16.5869 9.09432 16.6789 9.14964 16.7563 9.21937ZM22 4.5V19.5C22 19.8978 21.8244 20.2794 21.5118 20.5607C21.1993 20.842 20.7754 21 20.3333 21H3.66667C3.22464 21 2.80072 20.842 2.48816 20.5607C2.17559 20.2794 2 19.8978 2 19.5V4.5C2 4.10218 2.17559 3.72064 2.48816 3.43934C2.80072 3.15804 3.22464 3 3.66667 3H20.3333C20.7754 3 21.1993 3.15804 21.5118 3.43934C21.8244 3.72064 22 4.10218 22 4.5ZM20.3333 19.5V4.5H3.66667V19.5H20.3333Z" fill="black"/>
</svg>
