<svg width="24" height="24" viewBox="0 0 24 24" fill="none" xmlns="http://www.w3.org/2000/svg">
<path d="M13.2961 12.0089L21.7356 3.59802C22.0882 3.24212 22.0882 2.66555 21.7356 2.30965C21.3892 1.94738 20.8172 1.9365 20.4576 2.28534L12.0181 10.6963L3.6871 2.28534C3.5163 2.1032 3.27865 2 3.03003 2C2.78141 2 2.54375 2.1032 2.37295 2.28534C2.06033 2.6292 2.06033 3.15693 2.37295 3.50079L10.7039 11.8996L2.26445 20.2983C1.91185 20.6542 1.91185 21.2308 2.26445 21.5867C2.4323 21.76 2.66316 21.8566 2.90344 21.8541C3.14834 21.8741 3.39113 21.7954 3.57859 21.6353L12.0181 13.2244L20.4576 21.7326C20.6254 21.9059 20.8563 22.0025 21.0966 22C21.3366 22.0011 21.5669 21.9047 21.7356 21.7326C22.0882 21.3766 22.0882 20.8001 21.7356 20.4442L13.2961 12.0089Z" fill="black"/>
</svg>
