<svg width="24" height="24" viewBox="0 0 24 24" fill="none" xmlns="http://www.w3.org/2000/svg">
<path fill-rule="evenodd" clip-rule="evenodd" d="M6.23252 2.00216H16.7175C18.0874 1.963 19.4165 2.45853 20.4087 3.37838C21.401 4.29822 21.9739 5.56597 22 6.89924V14.274C21.9184 17.0149 19.585 19.1813 16.7675 19.1322H15.1498C14.7432 19.1333 14.3584 19.3115 14.1013 19.618L12.5735 21.5127C12.3175 21.8209 11.9322 22 11.525 22C11.1178 22 10.7324 21.8209 10.4765 21.5127L8.89872 19.5792C8.64159 19.2727 8.25684 19.0944 7.85021 19.0934H6.23252C3.41498 19.1424 1.08163 16.976 1 14.2351V6.86037C1.07626 4.1172 3.41285 1.94776 6.23252 2.00216ZM16.7275 17.6748C18.7331 17.7238 20.4024 16.1864 20.4622 14.2351V6.89924C20.4024 4.94407 18.727 3.40516 16.7175 3.45962H6.23252C4.22306 3.40516 2.54768 4.94407 2.48787 6.89924V14.2351C2.54768 16.1903 4.22306 17.7292 6.23252 17.6748H7.85021C8.71608 17.6749 9.53511 18.0573 10.077 18.7144L11.475 20.4439L12.873 18.7144C13.415 18.0573 14.234 17.6749 15.0999 17.6748H16.7275Z" fill="black"/>
<path d="M7.73038 8.76479C7.31676 8.76479 6.98145 9.09106 6.98145 9.49352V11.8255C6.98145 12.2279 7.31676 12.5542 7.73038 12.5542C8.14401 12.5542 8.47931 12.2279 8.47931 11.8255V9.49352C8.47931 9.09106 8.14401 8.76479 7.73038 8.76479Z" fill="black"/>
<path d="M11.475 8.76479C11.0614 8.76479 10.7261 9.09106 10.7261 9.49352V11.8255C10.7261 12.2279 11.0614 12.5542 11.475 12.5542C11.8887 12.5542 12.224 12.2279 12.224 11.8255V9.49352C12.224 9.09106 11.8887 8.76479 11.475 8.76479Z" fill="black"/>
<path d="M15.2197 8.76479C14.8061 8.76479 14.4708 9.09106 14.4708 9.49352V11.8255C14.4708 12.2279 14.8061 12.5542 15.2197 12.5542C15.6333 12.5542 15.9686 12.2279 15.9686 11.8255V9.49352C15.9686 9.09106 15.6333 8.76479 15.2197 8.76479Z" fill="black"/>
</svg>
