<svg width="24" height="24" viewBox="0 0 24 24" fill="none" xmlns="http://www.w3.org/2000/svg">
<path d="M11.459 15.8834L8.03735 12.0691C7.89226 11.9075 7.81071 11.6879 7.81071 11.459C7.81071 11.23 7.89226 11.0105 8.03735 10.8489C8.3425 10.5221 8.82385 10.5221 9.12899 10.8489L11.2297 13.2072V2.86131C11.2297 2.38562 11.5747 2 12.0003 2C12.4258 2 12.7708 2.38562 12.7708 2.86131V13.2072L14.8716 10.8489C15.1767 10.5221 15.6581 10.5221 15.9632 10.8489C16.1083 11.0105 16.1898 11.23 16.1898 11.459C16.1898 11.6879 16.1083 11.9075 15.9632 12.0691L12.5415 15.8834C12.4003 16.0484 12.2045 16.1411 12.0003 16.1398C11.7956 16.1436 11.599 16.0505 11.459 15.8834Z" fill="black"/>
<path d="M16.7888 7.55747H17.8988C20.2071 7.61354 22.0403 9.74515 21.9993 12.3254V16.2321C22.0403 18.8123 20.2071 20.9439 17.8988 21L6.10177 20.918C3.79351 20.8619 1.96028 18.7303 2.00124 16.15V12.2434C1.97417 10.9988 2.39133 9.79327 3.16065 8.89296C3.92997 7.99266 4.98819 7.47156 6.10177 7.44468H7.21175C7.63732 7.44468 7.98232 7.8303 7.98232 8.30599C7.98232 8.78168 7.63732 9.1673 7.21175 9.1673H6.10177C5.39601 9.19126 4.7282 9.52999 4.24736 10.1079C3.76651 10.6858 3.51263 11.4549 3.54238 12.2434V16.1193C3.51263 16.9078 3.76651 17.6768 4.24736 18.2547C4.7282 18.8327 5.39601 19.1714 6.10177 19.1954L17.8988 19.3389C18.6046 19.3149 19.2724 18.9762 19.7532 18.3983C20.2341 17.8204 20.4879 17.0513 20.4582 16.2628V12.3562C20.4879 11.5677 20.2341 10.7986 19.7532 10.2207C19.2724 9.64278 18.6046 9.30405 17.8988 9.28009H16.7888C16.3632 9.28009 16.0182 8.89447 16.0182 8.41878C16.0182 7.94309 16.3632 7.55747 16.7888 7.55747Z" fill="black"/>
</svg>
