<svg width="24" height="24" viewBox="0 0 24 24" fill="none" xmlns="http://www.w3.org/2000/svg">
<path fill-rule="evenodd" clip-rule="evenodd" d="M7.98703 15.0111L8.75245 11.4274C8.86389 10.9294 9.11489 10.4736 9.47593 10.1137L16.4695 3.16686C17.1787 2.44272 18.1417 2.02424 19.1537 2.00029C19.9171 1.98933 20.6532 2.28445 21.1984 2.82004C22.3897 4.23091 22.2359 6.33782 20.8523 7.55985L13.8587 14.5697C13.4997 14.9316 13.0449 15.1832 12.5481 15.2949L8.97264 16.0621H8.77342C8.51204 16.0721 8.26238 15.9529 8.10544 15.7432C7.94849 15.5334 7.90424 15.2598 7.98703 15.0111ZM10.5874 11.2382C10.4404 11.3809 10.3384 11.5636 10.2938 11.7637L9.78 14.2124L12.223 13.6869C12.4227 13.6422 12.6049 13.5399 12.7473 13.3927L19.7409 6.38278C20.507 5.768 20.6591 4.65972 20.0869 3.86049C19.8364 3.62056 19.5001 3.49178 19.1537 3.50316C18.5567 3.52719 17.9925 3.78356 17.581 4.21781L10.5874 11.2382Z" fill="black"/>
<path d="M20.6951 10.45C20.2631 10.4556 19.9143 10.8053 19.9087 11.2382V17.2181C19.9227 18.0634 19.5976 18.8789 19.0061 19.4816C18.4147 20.0843 17.6065 20.4237 16.7631 20.4236H6.77076C5.02746 20.3893 3.63057 18.9658 3.6252 17.2181V7.24457C3.65382 5.49482 5.07726 4.09146 6.82318 4.0917H12.7892C13.2236 4.0917 13.5756 3.7388 13.5756 3.30348C13.5756 2.86816 13.2236 2.51526 12.7892 2.51526H6.77076C4.15628 2.51511 2.02873 4.62417 2 7.24457V17.2181C2 19.8591 4.13594 22 6.77076 22H16.7212C19.3519 21.9942 21.4815 19.855 21.4815 17.2181V11.2382C21.4758 10.8053 21.127 10.4556 20.6951 10.45Z" fill="black"/>
</svg>
