<svg width="24" height="24" viewBox="0 0 24 24" fill="none" xmlns="http://www.w3.org/2000/svg">
<path fill-rule="evenodd" clip-rule="evenodd" d="M21.2251 15.0836L21.9872 20.3838C22.0422 20.7919 21.9183 21.2039 21.6473 21.5137C21.3763 21.8235 20.9847 22.0008 20.5734 22H20.3628L15.0686 21.2371C14.351 21.138 13.6854 20.8066 13.1735 20.2935L3.40734 10.5061C1.50738 8.53665 1.53455 5.40615 3.46841 3.47009C5.40227 1.53402 8.52918 1.50681 10.4964 3.40895L20.2826 13.1863C20.7952 13.6988 21.1262 14.3651 21.2251 15.0836ZM14.2865 19.2294C14.5639 19.496 14.9119 19.6772 15.2892 19.7514L20.5132 20.4441L19.7813 15.2542C19.7072 14.8765 19.5262 14.528 19.2599 14.2504L9.48364 4.47301C8.82493 3.796 7.92095 3.41414 6.97691 3.41414C6.03288 3.41414 5.1289 3.796 4.47019 4.47301C3.8095 5.1306 3.438 6.0248 3.438 6.95751C3.438 7.89021 3.8095 8.78441 4.47019 9.442L14.2865 19.2294Z" fill="black"/>
<path d="M7.44818 6.39034C7.15187 6.11392 6.69014 6.12208 6.40375 6.40879C6.11737 6.6955 6.10923 7.15776 6.38533 7.45441L10.6067 11.6806C10.9003 11.9741 11.3759 11.9741 11.6695 11.6806C11.9627 11.3866 11.9627 10.9104 11.6695 10.6165L7.44818 6.39034Z" fill="black"/>
</svg>
