<svg width="24" height="24" viewBox="0 0 24 24" fill="none" xmlns="http://www.w3.org/2000/svg">
<path d="M21.7243 12.683C22.0914 12.3054 22.0914 11.6946 21.7243 11.321L16.7254 6.17411C16.3582 5.79643 15.7646 5.79643 15.4014 6.17411C15.0382 6.55179 15.0343 7.1625 15.4014 7.53616L18.7991 11.0317L9.18791 11.0357C8.66849 11.0357 8.25061 11.4656 8.25061 12C8.25061 12.5344 8.66849 12.9643 9.18791 12.9643H18.7991L15.4014 16.4598C15.0343 16.8375 15.0343 17.4482 15.4014 17.8219C15.7685 18.1955 16.3621 18.1996 16.7254 17.8219L21.7243 12.683ZM8.56304 4.92857C9.08246 4.92857 9.50034 4.49866 9.50034 3.96429C9.50034 3.42991 9.08246 3 8.56304 3H5.43871C3.54069 3 2.00195 4.58304 2.00195 6.53571V17.4643C2.00195 19.417 3.54069 21 5.43871 21H8.56304C9.08246 21 9.50034 20.5701 9.50034 20.0357C9.50034 19.5013 9.08246 19.0714 8.56304 19.0714H5.43871C4.57562 19.0714 3.87655 18.3522 3.87655 17.4643V6.53571C3.87655 5.64777 4.57562 4.92857 5.43871 4.92857H8.56304Z" fill="#292929"/>
</svg>
