<svg width="24" height="24" viewBox="0 0 24 24" fill="none" xmlns="http://www.w3.org/2000/svg">
<path fill-rule="evenodd" clip-rule="evenodd" d="M13.9657 10.131C14.9668 10.107 15.861 9.49898 16.2514 8.57695C16.3348 8.61208 16.4239 8.63145 16.5143 8.63408H21.0857C21.5591 8.63408 21.9429 8.25038 21.9429 7.77705C21.9429 7.30373 21.5591 6.92003 21.0857 6.92003H16.5714C16.5221 6.91356 16.4722 6.91356 16.4229 6.92003C16.0955 5.63403 14.8359 4.81447 13.5274 5.03611C12.2188 5.25775 11.2994 6.44637 11.414 7.76842C11.5285 9.09047 12.6386 10.1033 13.9657 10.0967V10.131ZM13.9657 6.76005C14.4265 6.76005 14.8 7.13352 14.8 7.59422C14.8 8.05492 14.4265 8.42839 13.9657 8.42839C13.505 8.42839 13.1314 8.05492 13.1314 7.59422C13.1314 7.13352 13.505 6.76005 13.9657 6.76005Z" fill="black"/>
<path d="M2.85714 6.92003H9.71429C10.1877 6.92003 10.5714 7.30373 10.5714 7.77705C10.5714 8.25038 10.1877 8.63408 9.71429 8.63408H2.85714C2.38376 8.63408 2 8.25038 2 7.77705C2 7.30373 2.38376 6.92003 2.85714 6.92003Z" fill="black"/>
<path fill-rule="evenodd" clip-rule="evenodd" d="M5.04 16.0617C5.39797 15.0493 6.35465 14.3719 7.42857 14.3705V14.3476C8.72093 14.346 9.80995 15.3118 9.96256 16.5949C10.1152 17.878 9.28308 19.0723 8.02638 19.3737C6.76967 19.6752 5.48624 18.9884 5.04 17.7757H2.85714C2.38376 17.7757 2 17.392 2 16.9187C2 16.4454 2.38376 16.0617 2.85714 16.0617H5.04ZM6.59566 16.9788C6.60352 17.4333 6.97391 17.7979 7.42857 17.7986V17.7529C7.88934 17.7529 8.26286 17.3794 8.26286 16.9187C8.23794 16.4648 7.85412 16.1144 7.39976 16.1308C6.9454 16.1471 6.58781 16.5243 6.59566 16.9788Z" fill="black"/>
<path d="M12 16.0617H21.1429C21.6162 16.0617 22 16.4454 22 16.9187C22 17.392 21.6162 17.7757 21.1429 17.7757H12C11.5266 17.7757 11.1429 17.392 11.1429 16.9187C11.1429 16.4454 11.5266 16.0617 12 16.0617Z" fill="black"/>
</svg>
