<svg width="24" height="24" viewBox="0 0 24 24" fill="none" xmlns="http://www.w3.org/2000/svg">
<path fill-rule="evenodd" clip-rule="evenodd" d="M4.9478 2.00065H19.0629V2.01064C20.2524 1.98987 21.3328 2.70354 21.7841 3.80821C22.2354 4.91287 21.9652 6.18225 21.1036 7.00544L16.3554 11.7705C15.8268 12.3018 15.5236 13.0178 15.5093 13.7684V18.1638C15.5077 19.0753 15.0802 19.9333 14.3546 20.4814L13.1202 21.4105C12.2474 22.077 11.0727 22.1875 10.0916 21.6952C9.11057 21.2029 8.49382 20.1936 8.50147 19.0929V13.7684C8.4871 13.0178 8.1839 12.3018 7.65536 11.7705L2.90718 7.00544C2.03792 6.18348 1.76281 4.9092 2.21512 3.79989C2.66742 2.69058 3.75373 1.97534 4.9478 2.00065ZM20.357 4.36819C20.1422 3.84112 19.6304 3.49738 19.0629 3.49909H4.9478C4.38036 3.49738 3.86856 3.84112 3.65374 4.36819C3.43199 4.8927 3.55462 5.50008 3.96233 5.8966L8.73042 10.6616C9.5557 11.4829 10.0183 12.602 10.0145 13.7684V19.0929C10.0092 19.4611 10.1499 19.8165 10.4057 20.0806C10.6614 20.3448 11.0113 20.4961 11.3782 20.5014C11.6781 20.5001 11.969 20.3981 12.2044 20.2117L13.4388 19.2827C13.7897 19.0185 13.9962 18.604 13.9962 18.1638V13.7684C13.9977 12.5991 14.4676 11.4796 15.3002 10.6616L20.0484 5.8966C20.4561 5.50008 20.5787 4.8927 20.357 4.36819Z" fill="black"/>
</svg>
