<svg width="20" height="20" viewBox="0 0 20 20" fill="none" xmlns="http://www.w3.org/2000/svg">
<path d="M17.8444 8.4332H17.2V8.4H10V11.6H14.5212C13.8616 13.4628 12.0892 14.8 10 14.8C7.3492 14.8 5.2 12.6508 5.2 10C5.2 7.3492 7.3492 5.2 10 5.2C11.2236 5.2 12.3368 5.6616 13.1844 6.4156L15.4472 4.1528C14.0184 2.8212 12.1072 2 10 2C5.582 2 2 5.582 2 10C2 14.418 5.582 18 10 18C14.418 18 18 14.418 18 10C18 9.4636 17.9448 8.94 17.8444 8.4332Z" fill="#FBC02D"/>
<path d="M2.9224 6.2764L5.5508 8.204C6.262 6.4432 7.9844 5.2 10 5.2C11.2236 5.2 12.3368 5.6616 13.1844 6.4156L15.4472 4.1528C14.0184 2.8212 12.1072 2 10 2C6.9272 2 4.2624 3.7348 2.9224 6.2764Z" fill="#E53935"/>
<path d="M10 18C12.0664 18 13.944 17.2092 15.3636 15.9232L12.8876 13.828C12.0844 14.4364 11.086 14.8 10 14.8C7.9192 14.8 6.1524 13.4732 5.4868 11.6216L2.878 13.6316C4.202 16.2224 6.8908 18 10 18Z" fill="#4CAF50"/>
<path d="M17.8444 8.4332L17.838 8.4L17.2 8.4H10V11.6H14.5212C14.2044 12.4948 13.6288 13.2664 12.8864 13.8284C12.8868 13.828 12.8872 13.8284 12.8876 13.828L15.3636 15.9232C15.1884 16.0824 18 14 18 10C18 9.4636 17.9448 8.94 17.8444 8.4332Z" fill="#1565C0"/>
</svg>
