<svg width="24" height="24" viewBox="0 0 24 24" fill="none" xmlns="http://www.w3.org/2000/svg">
<path d="M6.7441 2.006C5.3971 1.254 3.8026 1.889 3.2251 3.1615L12.0631 12L16.5701 7.493L6.7441 2.006Z" fill="url(#paint0_linear_833_2804)"/>
<path d="M16.5701 16.507L12.0631 12L3.2251 20.8385C3.8031 22.1115 5.3976 22.746 6.7441 21.9945L16.5701 16.507Z" fill="url(#paint1_linear_833_2804)"/>
<path d="M20.7095 14.1965C21.5695 13.7165 21.9995 12.8585 22 12C21.9995 11.1415 21.5695 10.283 20.7095 9.8035L16.57 7.493L12.063 12L16.57 16.507L20.7095 14.1965Z" fill="url(#paint2_linear_833_2804)"/>
<path d="M3.225 3.1615C3.084 3.474 3 3.826 3 4.204V19.7935C3 20.174 3.082 20.525 3.225 20.8385L12.062 11.9985L3.225 3.1615Z" fill="url(#paint3_linear_833_2804)"/>
<defs>
<linearGradient id="paint0_linear_833_2804" x1="9.0511" y1="1.622" x2="12.6486" y2="17.37" gradientUnits="userSpaceOnUse">
<stop stop-color="#35AB4A"/>
<stop offset="0.297" stop-color="#31A145"/>
<stop offset="0.798" stop-color="#288739"/>
<stop offset="1" stop-color="#237A33"/>
</linearGradient>
<linearGradient id="paint1_linear_833_2804" x1="9.5791" y1="11.931" x2="10.5971" y2="33.4655" gradientUnits="userSpaceOnUse">
<stop stop-color="#F14E5D"/>
<stop offset="0.499" stop-color="#EA3D4F"/>
<stop offset="1" stop-color="#E12138"/>
</linearGradient>
<linearGradient id="paint2_linear_833_2804" x1="16.4715" y1="7.4495" x2="18.2705" y2="21.806" gradientUnits="userSpaceOnUse">
<stop stop-color="#FFD844"/>
<stop offset="0.519" stop-color="#FFC63F"/>
<stop offset="1" stop-color="#FFB03A"/>
</linearGradient>
<linearGradient id="paint3_linear_833_2804" x1="6.9265" y1="2.9505" x2="7.786" y2="21.4055" gradientUnits="userSpaceOnUse">
<stop offset="0.003" stop-color="#0090E6"/>
<stop offset="1" stop-color="#0065A0"/>
</linearGradient>
</defs>
</svg>
