<svg width="24" height="24" viewBox="0 0 24 24" fill="none" xmlns="http://www.w3.org/2000/svg">
<path fill-rule="evenodd" clip-rule="evenodd" d="M22 5.43873C21.9818 4.34347 21.3467 3.33019 20.3108 2.74378C18.9385 1.93424 17.2098 1.77511 15.6815 2.31765L9.81431 4.42524C8.32441 4.89423 7.30348 6.1252 7.23533 7.5348V15.9421C6.7312 15.702 6.16902 15.5755 5.59768 15.5736C3.61074 15.5736 2 17.0122 2 18.7868C2 20.5614 3.61074 22 5.59768 22C7.58462 22 9.19536 20.5614 9.19536 18.7868V7.51177C9.26678 6.81055 9.80755 6.21821 10.5622 6.01457L16.4165 3.93002C17.3502 3.59582 18.4073 3.68594 19.2534 4.17187C19.7496 4.44482 20.0632 4.91881 20.0916 5.43873V13.8C19.5746 13.556 18.9999 13.4257 18.4152 13.4199C16.4473 13.4092 14.8349 14.8128 14.7963 16.5701C14.7578 18.3274 16.3073 19.7863 18.2742 19.8445C20.2411 19.9027 21.8954 18.5386 21.9871 16.7829C21.9931 16.7292 21.9931 16.6752 21.9871 16.6216L22 5.43873ZM5.59767 20.261C4.68956 20.272 3.93942 19.6304 3.91239 18.8196C3.88536 18.0088 4.59144 17.3286 5.49868 17.2913C6.40591 17.254 7.17892 17.8736 7.23533 18.6831V18.8789C7.18736 19.6551 6.46802 20.2621 5.59767 20.261ZM16.8434 17.1982C17.105 17.753 17.7155 18.112 18.3894 18.1073C18.8294 18.1073 19.2512 17.9504 19.5611 17.6715C19.871 17.3925 20.0434 17.0146 20.04 16.6216C20.04 16.0197 19.6333 15.4772 19.0101 15.248C18.3869 15.0187 17.6704 15.1479 17.1957 15.5752C16.721 16.0025 16.5819 16.6434 16.8434 17.1982Z" fill="black"/>
</svg>
