<svg width="24" height="24" viewBox="0 0 24 24" fill="none" xmlns="http://www.w3.org/2000/svg">
<path d="M11.9507 20.5369C11.4581 20.5369 10.867 20.3399 10.4729 19.9458C4.06896 14.3301 3.97044 14.2315 3.97044 14.133L3.87192 14.0345C2.68965 12.8522 2 11.1773 2 9.50246V9.30542C2.09852 5.75862 4.95566 3 8.50246 3C9.58621 3 11.064 3.59113 11.9507 4.7734C12.8374 3.59113 14.4138 3 15.4975 3C19.0443 3 21.803 5.75862 22 9.30542V9.50246C22 11.2759 21.3103 12.8522 20.1281 14.133L20.0296 14.2315C19.931 14.3301 19.1429 15.0197 13.5271 20.0443C13.0345 20.3399 12.5419 20.5369 11.9507 20.5369ZM5.44828 13.8374C5.84237 14.2315 7.81281 15.6108 11.4581 18.7636C11.7537 19.0591 12.1478 19.0591 12.4434 18.7636C16.1872 15.4138 18.3547 13.5419 18.8473 13.1478L18.9458 13.0493C19.931 12.064 20.4236 10.7833 20.4236 9.50246V9.30542C20.3251 6.5468 18.1576 4.47783 15.399 4.47783C14.7094 4.47783 13.3301 4.97044 12.8374 6.05419C12.6404 6.44828 12.2463 6.64532 11.8522 6.64532C11.4581 6.64532 11.064 6.44828 10.867 6.05419C10.3744 5.06897 9.0936 4.47783 8.30542 4.47783C5.64532 4.47783 3.37931 6.64532 3.28079 9.30542V9.60099C3.28079 10.8818 3.87192 12.1626 4.75862 13.0493L5.44828 13.8374Z" fill="black"/>
</svg>
