<svg width="24" height="24" viewBox="0 0 24 24" fill="none" xmlns="http://www.w3.org/2000/svg">
<path d="M12 8.16956C11.6083 8.21472 11.3126 8.54641 11.3126 8.94076C11.3126 9.3351 11.6083 9.66679 12 9.71195C12.2058 9.71481 12.4039 9.6336 12.5485 9.48708C12.6931 9.34057 12.7717 9.14142 12.7661 8.93565C12.7606 8.51485 12.4208 8.17506 12 8.16956Z" fill="black"/>
<path d="M12 11.1113C11.796 11.1086 11.5995 11.1884 11.4552 11.3327C11.311 11.4769 11.2311 11.6734 11.2339 11.8774V15.0644C11.2339 15.4875 11.5769 15.8304 12 15.8304C12.4231 15.8304 12.7661 15.4875 12.7661 15.0644V11.8979C12.7716 11.6912 12.6933 11.491 12.5491 11.3429C12.4048 11.1948 12.2068 11.1113 12 11.1113Z" fill="black"/>
<path fill-rule="evenodd" clip-rule="evenodd" d="M12 2C6.47949 2.00563 2.00563 6.47949 2 12C2 17.5228 6.47715 22 12 22C17.5228 22 22 17.5228 22 12C21.9944 6.47949 17.5205 2.00563 12 2ZM12 20.4678C7.32335 20.4678 3.53218 16.6767 3.53218 12C3.53218 7.32335 7.32335 3.53218 12 3.53218C16.6767 3.53218 20.4678 7.32335 20.4678 12C20.4622 16.6743 16.6743 20.4622 12 20.4678Z" fill="black"/>
</svg>
