<svg width="24" height="24" viewBox="0 0 24 24" fill="none" xmlns="http://www.w3.org/2000/svg">
<path d="M22.1067 18.9314L18.8222 3.1507C18.7797 2.94433 18.6973 2.74848 18.5797 2.5744C18.4621 2.40031 18.3116 2.25142 18.1369 2.13629C17.9622 2.02115 17.7667 1.94203 17.5616 1.90348C17.3566 1.86493 17.146 1.86771 16.942 1.91165L12.3096 2.91769C11.8999 3.00835 11.5421 3.25884 11.3142 3.61466C11.0862 3.97049 11.0065 4.40287 11.0924 4.81777L14.3769 20.5984C14.4501 20.9585 14.6437 21.2821 14.9252 21.5148C15.2067 21.7476 15.5589 21.8753 15.9227 21.8765C16.0351 21.8763 16.1472 21.8643 16.2572 21.8405L20.8895 20.8345C21.2998 20.7436 21.6579 20.4926 21.8858 20.1362C22.1138 19.7797 22.1932 19.3467 22.1067 18.9314ZM12.6411 4.49076C12.6411 4.48476 12.6411 4.48176 12.6411 4.48176L17.2725 3.48171L17.602 5.06878L12.9707 6.07582L12.6411 4.49076ZM13.2962 7.63789L17.9296 6.63285L18.2601 8.22291L13.6307 9.22896L13.2962 7.63789ZM13.9533 10.795L18.5867 9.78898L19.9029 16.1132L15.2695 17.1193L13.9533 10.795ZM20.558 19.2704L15.9266 20.2704L15.5971 18.6834L20.2285 17.6763L20.558 19.2614C20.558 19.2674 20.558 19.2704 20.558 19.2704ZM9.47437 2.67568H4.72424C4.30431 2.67568 3.90157 2.84426 3.60463 3.14433C3.30769 3.4444 3.14087 3.85138 3.14087 4.27575V20.2764C3.14087 20.7008 3.30769 21.1078 3.60463 21.4078C3.90157 21.7079 4.30431 21.8765 4.72424 21.8765H9.47437C9.89431 21.8765 10.297 21.7079 10.594 21.4078C10.8909 21.1078 11.0577 20.7008 11.0577 20.2764V4.27575C11.0577 3.85138 10.8909 3.4444 10.594 3.14433C10.297 2.84426 9.89431 2.67568 9.47437 2.67568ZM4.72424 4.27575H9.47437V5.87581H4.72424V4.27575ZM4.72424 7.47588H9.47437V17.0763H4.72424V7.47588ZM9.47437 20.2764H4.72424V18.6764H9.47437V20.2764Z" fill="black"/>
</svg>
