<svg width="24" height="24" viewBox="0 0 24 24" fill="none" xmlns="http://www.w3.org/2000/svg">
<path d="M22.998 7.85826C22.9586 9.30884 22.3963 10.6882 21.4268 11.7122L18.0142 15.3338C17.5172 15.8638 16.926 16.284 16.2748 16.5701C15.6237 16.8562 14.9255 17.0024 14.2206 17.0003H14.2157C13.4989 16.9998 12.7894 16.8469 12.1292 16.5506C11.469 16.2544 10.8715 15.8208 10.3719 15.2755C9.87238 14.7302 9.48092 14.0843 9.22069 13.3758C8.96045 12.6674 8.83672 11.9108 8.8568 11.1507C8.86266 10.9297 8.95105 10.7203 9.10252 10.5684C9.254 10.4165 9.45616 10.3347 9.66452 10.3409C9.87288 10.3471 10.0704 10.4409 10.2136 10.6015C10.3568 10.7622 10.4339 10.9766 10.428 11.1976C10.4137 11.735 10.5011 12.27 10.6851 12.7709C10.869 13.2719 11.1457 13.7286 11.4989 14.1142C11.8521 14.4998 12.2746 14.8064 12.7414 15.0159C13.2082 15.2253 13.7099 15.3334 14.2167 15.3338C14.715 15.3351 15.2085 15.2317 15.6689 15.0295C16.1292 14.8273 16.5472 14.5303 16.8986 14.1557L20.3112 10.5362C21.0153 9.78001 21.4087 8.75908 21.4056 7.6963C21.4024 6.63352 21.003 5.61522 20.2945 4.86372C19.5859 4.11222 18.6259 3.68856 17.6239 3.68523C16.6219 3.68191 15.6593 4.09919 14.9464 4.84597L13.8661 5.99172C13.7176 6.1414 13.5198 6.22361 13.315 6.22082C13.1101 6.21804 12.9144 6.13049 12.7695 5.97683C12.6246 5.82317 12.5421 5.61557 12.5395 5.39828C12.5368 5.181 12.6143 4.97122 12.7555 4.81368L13.8357 3.66793C14.3341 3.13914 14.9258 2.71967 15.577 2.43349C16.2283 2.1473 16.9263 2 17.6312 2C18.3362 2 19.0342 2.1473 19.6854 2.43349C20.3367 2.71967 20.9284 3.13914 21.4268 3.66793C21.943 4.2168 22.3485 4.87135 22.6186 5.59174C22.8887 6.31212 23.0178 7.08328 22.998 7.85826ZM10.1334 18.0065L9.0532 19.1523C8.70087 19.5284 8.28156 19.8266 7.81962 20.0294C7.35769 20.2321 6.86237 20.3355 6.36244 20.3334C5.61247 20.3328 4.8795 20.0964 4.25615 19.6541C3.6328 19.2118 3.14704 18.5834 2.86024 17.8484C2.57345 17.1134 2.49849 16.3047 2.64484 15.5246C2.79119 14.7444 3.15228 14.0277 3.68248 13.4652L7.08914 9.84562C7.62571 9.2735 8.31207 8.88573 9.05909 8.73266C9.8061 8.5796 10.5792 8.66831 11.2781 8.98727C11.977 9.30624 12.5693 9.84072 12.9781 10.5213C13.3869 11.2019 13.5933 11.9971 13.5705 12.8037C13.5647 13.0247 13.6418 13.2392 13.785 13.3998C13.9282 13.5605 14.1257 13.6542 14.3341 13.6605C14.5424 13.6667 14.7446 13.5848 14.8961 13.433C15.0475 13.2811 15.1359 13.0716 15.1418 12.8506C15.1606 12.0768 15.0311 11.3071 14.761 10.588C14.4909 9.86896 14.0859 9.2156 13.5705 8.66758C12.5641 7.6006 11.1994 7.00121 9.77647 7.00121C8.35351 7.00121 6.9888 7.6006 5.9824 8.66758L2.57181 12.2871C1.82176 13.0823 1.3108 14.0955 1.10349 15.1987C0.896175 16.3018 1.00182 17.4453 1.40707 18.4848C1.81232 19.5243 2.49899 20.413 3.3803 21.0387C4.26161 21.6643 5.29801 21.9989 6.35851 22C7.06348 22.0021 7.76186 21.8559 8.4132 21.5699C9.06454 21.2838 9.65591 20.8636 10.1531 20.3334L11.2333 19.1877C11.3604 19.0288 11.4269 18.8252 11.4195 18.617C11.4121 18.4088 11.3314 18.2111 11.1934 18.0628C11.0553 17.9146 10.8699 17.8266 10.6737 17.8162C10.4775 17.8057 10.2848 17.8736 10.1334 18.0065Z" fill="black"/>
</svg>
