<svg width="24" height="24" viewBox="0 0 24 24" fill="none" xmlns="http://www.w3.org/2000/svg">
<rect width="24" height="24" fill="white"/>
<path d="M17 5.10526C17 4.90984 16.9122 4.72242 16.7559 4.58424C16.5996 4.44605 16.3877 4.36842 16.1667 4.36842H2.83333C2.61232 4.36842 2.40036 4.44605 2.24408 4.58424C2.0878 4.72242 2 4.90984 2 5.10526C2 5.30069 2.0878 5.4881 2.24408 5.62629C2.40036 5.76447 2.61232 5.84211 2.83333 5.84211H16.1667C16.3877 5.84211 16.5996 5.76447 16.7559 5.62629C16.9122 5.4881 17 5.30069 17 5.10526ZM2.83333 10.2632H16.1667C16.3877 10.2632 16.5996 10.3408 16.7559 10.479C16.9122 10.6172 17 10.8046 17 11C17 11.1954 16.9122 11.3828 16.7559 11.521C16.5996 11.6592 16.3877 11.7368 16.1667 11.7368H2.83333C2.61232 11.7368 2.40036 11.6592 2.24408 11.521C2.0878 11.3828 2 11.1954 2 11C2 10.8046 2.0878 10.6172 2.24408 10.479C2.40036 10.3408 2.61232 10.2632 2.83333 10.2632ZM2.83333 16.1579H16.1667C16.3877 16.1579 16.5996 16.2355 16.7559 16.3737C16.9122 16.5119 17 16.6993 17 16.8947C17 17.0902 16.9122 17.2776 16.7559 17.4158C16.5996 17.5539 16.3877 17.6316 16.1667 17.6316H2.83333C2.61232 17.6316 2.40036 17.5539 2.24408 17.4158C2.0878 17.2776 2 17.0902 2 16.8947C2 16.6993 2.0878 16.5119 2.24408 16.3737C2.40036 16.2355 2.61232 16.1579 2.83333 16.1579ZM20.75 4C20.9972 4 21.2389 4.06482 21.4445 4.18627C21.65 4.30772 21.8102 4.48034 21.9048 4.6823C21.9995 4.88426 22.0242 5.10649 21.976 5.32089C21.9277 5.53529 21.8087 5.73223 21.6339 5.8868C21.4591 6.04138 21.2363 6.14664 20.9939 6.18929C20.7514 6.23194 20.5001 6.21005 20.2716 6.12639C20.0432 6.04274 19.848 5.90107 19.7107 5.71931C19.5733 5.53755 19.5 5.32386 19.5 5.10526C19.5 4.81213 19.6317 4.531 19.8661 4.32372C20.1005 4.11645 20.4185 4 20.75 4ZM20.75 9.89474C20.9972 9.89474 21.2389 9.95956 21.4445 10.081C21.65 10.2025 21.8102 10.3751 21.9048 10.577C21.9995 10.779 22.0242 11.0012 21.976 11.2156C21.9277 11.43 21.8087 11.627 21.6339 11.7815C21.4591 11.9361 21.2363 12.0414 20.9939 12.084C20.7514 12.1267 20.5001 12.1048 20.2716 12.0211C20.0432 11.9375 19.848 11.7958 19.7107 11.6141C19.5733 11.4323 19.5 11.2186 19.5 11C19.5 10.7069 19.6317 10.4257 19.8661 10.2185C20.1005 10.0112 20.4185 9.89474 20.75 9.89474ZM20.75 15.7895C20.9972 15.7895 21.2389 15.8543 21.4445 15.9757C21.65 16.0972 21.8102 16.2698 21.9048 16.4718C21.9995 16.6737 22.0242 16.896 21.976 17.1104C21.9277 17.3248 21.8087 17.5217 21.6339 17.6763C21.4591 17.8308 21.2363 17.9361 20.9939 17.9788C20.7514 18.0214 20.5001 17.9995 20.2716 17.9159C20.0432 17.8322 19.848 17.6905 19.7107 17.5088C19.5733 17.327 19.5 17.1133 19.5 16.8947C19.5 16.6016 19.6317 16.3205 19.8661 16.1132C20.1005 15.9059 20.4185 15.7895 20.75 15.7895Z" fill="black"/>
</svg>
