<svg width="24" height="24" viewBox="0 0 24 24" fill="none" xmlns="http://www.w3.org/2000/svg">
<mask id="mask0_833_2864" style="mask-type:luminance" maskUnits="userSpaceOnUse" x="2" y="3" width="20" height="18">
<path d="M2.5 3H22V20.5H2.5V3Z" fill="white"/>
</mask>
<g mask="url(#mask0_833_2864)">
<path d="M20.028 20.49H4.472C3.383 20.49 2.5 19.607 2.5 18.518V4.982C2.5 3.893 3.383 3.01 4.472 3.01H20.0285C21.117 3.01 22 3.893 22 4.982V18.5185C22 19.607 21.117 20.49 20.028 20.49Z" fill="#E1E1E1"/>
</g>
<mask id="mask1_833_2864" style="mask-type:luminance" maskUnits="userSpaceOnUse" x="2" y="3" width="20" height="18">
<path d="M2.5 3H22V20.5H2.5V3Z" fill="white"/>
</mask>
<g mask="url(#mask1_833_2864)">
<path d="M19.496 3.02H13.16C13.142 3.02 13.1255 3.0315 13.1195 3.048C12.6145 4.4045 12.213 5.8095 11.92 7.225C11.643 8.615 11.4685 10.035 11.407 11.455C11.406 11.4795 11.4255 11.5 11.4505 11.5H13.36C13.56 11.5 13.755 11.585 13.89 11.735C14.025 11.885 14.09 12.085 14.07 12.285C13.9315 13.739 13.93 15.2125 14.08 16.667C14.0825 16.6925 14.106 16.711 14.131 16.706C15.2845 16.486 16.7635 15.974 18.145 14.8145C18.36 14.6395 18.675 14.6695 18.85 14.8795C19.03 15.0895 19 15.4045 18.79 15.5845C17.221 16.896 15.5395 17.463 14.25 17.702C14.2275 17.706 14.213 17.7275 14.2165 17.75C14.3545 18.6655 14.5545 19.576 14.8065 20.4675C14.8115 20.487 14.8285 20.5 14.848 20.5H19.459C20.586 20.5 21.5 19.586 21.5 18.4585V5.024C21.5 3.917 20.603 3.02 19.496 3.02ZM17.075 8.975C17.075 9.25 16.85 9.475 16.575 9.475C16.3 9.475 16.075 9.25 16.075 8.975V7.35C16.075 7.075 16.3 6.85 16.575 6.85C16.85 6.85 17.075 7.075 17.075 7.35V8.975Z" fill="#E1E1E1"/>
</g>
<mask id="mask2_833_2864" style="mask-type:luminance" maskUnits="userSpaceOnUse" x="2" y="3" width="20" height="18">
<path d="M2.5 3H22V20.5H2.5V3Z" fill="white"/>
</mask>
<g mask="url(#mask2_833_2864)">
<path d="M16.075 8.975V7.35C16.075 7.075 16.3 6.85 16.575 6.85C16.85 6.85 17.075 7.075 17.075 7.35V8.975C17.075 9.25 16.85 9.475 16.575 9.475C16.3 9.475 16.075 9.25 16.075 8.975Z" fill="#00B7F9"/>
</g>
<mask id="mask3_833_2864" style="mask-type:luminance" maskUnits="userSpaceOnUse" x="2" y="3" width="20" height="18">
<path d="M2.5 3H22V20.5H2.5V3Z" fill="white"/>
</mask>
<g mask="url(#mask3_833_2864)">
<path d="M18.79 15.585C17.205 16.91 15.505 17.475 14.21 17.71C14.35 18.65 14.555 19.585 14.815 20.5H4.5015C3.396 20.5 2.5 19.604 2.5 18.4985V5.0265C2.5 3.9185 3.3985 3.02 4.5065 3.02H13.13C12.62 4.385 12.215 5.8 11.92 7.225C11.64 8.63 11.465 10.065 11.405 11.5H13.36C13.56 11.5 13.755 11.585 13.89 11.735C14.025 11.885 14.09 12.085 14.07 12.285C13.93 13.755 13.93 15.245 14.085 16.715C15.245 16.5 16.745 15.99 18.145 14.815C18.36 14.64 18.675 14.67 18.85 14.88C19.03 15.09 19 15.405 18.79 15.585Z" fill="#00B7F9"/>
</g>
<mask id="mask4_833_2864" style="mask-type:luminance" maskUnits="userSpaceOnUse" x="2" y="3" width="20" height="18">
<path d="M2.5 3H22V20.5H2.5V3Z" fill="white"/>
</mask>
<g mask="url(#mask4_833_2864)">
<path d="M14.815 20.5C14.555 19.585 14.35 18.65 14.21 17.71C14.165 17.415 14.125 17.115 14.095 16.82C14.09 16.785 14.09 16.75 14.085 16.715C13.93 15.245 13.93 13.755 14.07 12.285C14.09 12.085 14.025 11.885 13.89 11.735C13.755 11.585 13.56 11.5 13.36 11.5H11.405C11.465 10.065 11.64 8.63 11.92 7.225C12.215 5.8 12.62 4.385 13.13 3.02C13.17 2.915 13.21 2.815 13.25 2.71L12.32 2.345C12.235 2.57 12.15 2.795 12.07 3.02C11.595 4.325 11.215 5.67 10.94 7.03C10.625 8.585 10.445 10.175 10.395 11.765C10.39 11.96 10.46 12.145 10.6 12.285C10.73 12.42 10.92 12.5 11.115 12.5H13.045C12.925 13.945 12.94 15.405 13.09 16.845C13.095 16.87 13.095 16.9 13.1 16.925C13.135 17.23 13.17 17.535 13.22 17.835C13.35 18.735 13.54 19.625 13.775 20.5C13.905 20.975 14.045 21.44 14.205 21.905L15.155 21.58C15.03 21.225 14.92 20.86 14.815 20.5Z" fill="#00A0D1"/>
</g>
<mask id="mask5_833_2864" style="mask-type:luminance" maskUnits="userSpaceOnUse" x="2" y="3" width="20" height="18">
<path d="M2.5 3H22V20.5H2.5V3Z" fill="white"/>
</mask>
<g mask="url(#mask5_833_2864)">
<path d="M18.79 15.585C17.205 16.91 15.505 17.475 14.21 17.71C13.845 17.775 13.51 17.815 13.22 17.835C12.94 17.86 12.7 17.865 12.515 17.865C9.31002 17.865 7.06002 16.27 6.24002 15.585C6.02502 15.405 6.00002 15.09 6.17502 14.88C6.35502 14.67 6.67002 14.64 6.88002 14.815C7.61502 15.435 9.63502 16.865 12.515 16.865C12.67 16.865 12.865 16.86 13.09 16.845C13.375 16.825 13.71 16.785 14.085 16.715C15.245 16.5 16.745 15.99 18.145 14.815C18.36 14.64 18.675 14.67 18.85 14.88C19.03 15.09 19 15.405 18.79 15.585Z" fill="#37474F"/>
</g>
<mask id="mask6_833_2864" style="mask-type:luminance" maskUnits="userSpaceOnUse" x="2" y="3" width="20" height="18">
<path d="M2.5 3H22V20.5H2.5V3Z" fill="white"/>
</mask>
<g mask="url(#mask6_833_2864)">
<path d="M7.91309 9.475C7.63659 9.475 7.41309 9.251 7.41309 8.975V7.351C7.41309 7.075 7.63659 6.851 7.91309 6.851C8.18959 6.851 8.41309 7.075 8.41309 7.351V8.975C8.41309 9.251 8.18959 9.475 7.91309 9.475Z" fill="#37474F"/>
</g>
<mask id="mask7_833_2864" style="mask-type:luminance" maskUnits="userSpaceOnUse" x="2" y="3" width="20" height="18">
<path d="M2.5 3H22V20.5H2.5V3Z" fill="white"/>
</mask>
<g mask="url(#mask7_833_2864)">
<path d="M17.075 7.35V8.975C17.075 9.25 16.85 9.475 16.575 9.475C16.3 9.475 16.075 9.25 16.075 8.975V7.35C16.075 7.075 16.3 6.85 16.575 6.85C16.85 6.85 17.075 7.075 17.075 7.35Z" fill="#37474F"/>
</g>
</svg>
