<svg width="24" height="24" viewBox="0 0 24 24" fill="none" xmlns="http://www.w3.org/2000/svg">
<path fill-rule="evenodd" clip-rule="evenodd" d="M2 6.11765C2 3.84353 3.84353 2 6.11765 2C8.39176 2 10.2353 3.84353 10.2353 6.11765C10.2353 8.39176 8.39176 10.2353 6.11765 10.2353C3.84353 10.2353 2 8.39176 2 6.11765ZM8.47059 6.11765C8.47059 4.81815 7.41714 3.76471 6.11765 3.76471C4.81815 3.76471 3.76471 4.81815 3.76471 6.11765C3.76471 7.41714 4.81815 8.47059 6.11765 8.47059C7.41714 8.47059 8.47059 7.41714 8.47059 6.11765Z" fill="black"/>
<path fill-rule="evenodd" clip-rule="evenodd" d="M13.7647 6.11765C13.7647 3.84353 15.6082 2 17.8824 2C20.1565 2 22 3.84353 22 6.11765C22 8.39176 20.1565 10.2353 17.8824 10.2353C15.6082 10.2353 13.7647 8.39176 13.7647 6.11765ZM20.2353 6.11765C20.2353 4.81815 19.1818 3.76471 17.8824 3.76471C16.5829 3.76471 15.5294 4.81815 15.5294 6.11765C15.5294 7.41714 16.5829 8.47059 17.8824 8.47059C19.1818 8.47059 20.2353 7.41714 20.2353 6.11765Z" fill="black"/>
<path fill-rule="evenodd" clip-rule="evenodd" d="M2 17.8824C2 15.6082 3.84353 13.7647 6.11765 13.7647C8.39176 13.7647 10.2353 15.6082 10.2353 17.8824C10.2353 20.1565 8.39176 22 6.11765 22C3.84353 22 2 20.1565 2 17.8824ZM8.47059 17.8824C8.47059 16.5829 7.41714 15.5294 6.11765 15.5294C4.81815 15.5294 3.76471 16.5829 3.76471 17.8824C3.76471 19.1818 4.81815 20.2353 6.11765 20.2353C7.41714 20.2353 8.47059 19.1818 8.47059 17.8824Z" fill="black"/>
<path fill-rule="evenodd" clip-rule="evenodd" d="M13.7647 17.8824C13.7647 15.6082 15.6082 13.7647 17.8824 13.7647C20.1565 13.7647 22 15.6082 22 17.8824C22 20.1565 20.1565 22 17.8824 22C15.6082 22 13.7647 20.1565 13.7647 17.8824ZM20.2353 17.8824C20.2353 16.5829 19.1818 15.5294 17.8824 15.5294C16.5829 15.5294 15.5294 16.5829 15.5294 17.8824C15.5294 19.1818 16.5829 20.2353 17.8824 20.2353C19.1818 20.2353 20.2353 19.1818 20.2353 17.8824Z" fill="black"/>
</svg>
