<svg width="24" height="24" viewBox="0 0 24 24" fill="none" xmlns="http://www.w3.org/2000/svg">
<path fill-rule="evenodd" clip-rule="evenodd" d="M9.80147 2.22916C10.5091 2.07698 11.2309 2.00025 11.9547 2.00023C14.8484 1.98608 17.6063 3.22703 19.5155 5.40237C21.4247 7.5777 22.2979 10.4739 21.9094 13.3425C21.2853 18.1292 16.5628 22.0001 11.7362 22.0001H4.80849C4.2196 22.0004 3.67385 21.6912 3.37119 21.1858C3.06852 20.6805 3.05341 20.0533 3.3314 19.5339L3.61225 18.9928C3.89177 18.4717 3.87195 17.8409 3.56024 17.3383C1.81447 14.5929 1.51474 11.1689 2.75694 8.16171C3.99914 5.15452 6.62759 2.94097 9.80147 2.22916ZM11.653 20.4288C15.8936 20.3619 19.4999 17.3157 20.2763 13.1448C20.629 10.7276 19.9026 8.27746 18.2895 6.44349C16.6918 4.61445 14.3828 3.56388 11.9547 3.5611C11.3397 3.56227 10.7264 3.62502 10.1239 3.7484C7.44555 4.34455 5.22434 6.20653 4.169 8.74024C3.11367 11.2739 3.35608 14.1628 4.81888 16.4851C5.44123 17.4631 5.48502 18.7017 4.93331 19.7212L4.65245 20.2519C4.62959 20.2867 4.62959 20.3317 4.65245 20.3664C4.69406 20.4288 4.75647 20.4288 4.75647 20.4288H11.653Z" fill="black"/>
</svg>
