<svg width="24" height="24" viewBox="0 0 24 24" fill="none" xmlns="http://www.w3.org/2000/svg">
<path d="M19.0668 11.2857C19.0668 10.8912 18.747 10.5714 18.3525 10.5714C17.958 10.5714 17.6382 10.8912 17.6382 11.2857C17.6662 12.9317 17.0384 14.5213 15.8932 15.704C14.7481 16.8867 13.1795 17.5654 11.5335 17.5905C9.88737 17.5654 8.31883 16.8867 7.17365 15.704C6.02847 14.5213 5.40068 12.9317 5.42869 11.2857C5.42869 10.8912 5.10889 10.5714 4.7144 10.5714C4.31991 10.5714 4.00012 10.8912 4.00012 11.2857C3.97849 15.2 6.92645 18.4938 10.8192 18.9048V21.2857C10.8192 21.6802 11.139 22 11.5335 22C11.9279 22 12.2477 21.6802 12.2477 21.2857V18.981C16.1698 18.5673 19.128 15.2291 19.0668 11.2857Z" fill="black"/>
<path fill-rule="evenodd" clip-rule="evenodd" d="M16.381 11.5238C16.381 14.1537 14.249 16.2857 11.619 16.2857C8.98912 16.2857 6.85714 14.1537 6.85714 11.5238V6.7619C6.85714 4.13198 8.98912 2 11.619 2C14.249 2 16.381 4.13198 16.381 6.7619V11.5238ZM11.619 3.42857C9.7781 3.42857 8.28571 4.92096 8.28571 6.7619V11.5238C8.28571 13.3648 9.7781 14.8571 11.619 14.8571C13.46 14.8571 14.9524 13.3648 14.9524 11.5238V6.7619C14.9524 4.92096 13.46 3.42857 11.619 3.42857Z" fill="black"/>
</svg>
