<svg width="24" height="24" viewBox="0 0 24 24" fill="none" xmlns="http://www.w3.org/2000/svg">
<path fill-rule="evenodd" clip-rule="evenodd" d="M16.3366 2.00023H8.29468C7.0488 1.98263 6.02306 2.97544 6 4.22123V19.7788C6.02306 21.0246 7.0488 22.0174 8.29468 21.9998H16.3366C17.5825 22.0174 18.6082 21.0246 18.6313 19.7788V4.22123C18.6082 2.97544 17.5825 1.98263 16.3366 2.00023ZM10.9999 3.57914H13.6314V4.10545C13.6314 4.25078 13.5136 4.3686 13.3683 4.3686H11.263C11.1177 4.3686 10.9999 4.25078 10.9999 4.10545V3.57914ZM16.3366 20.4209C16.7107 20.4388 17.0298 20.1526 17.0524 19.7788V4.22123C17.0298 3.84736 16.7107 3.56117 16.3366 3.57914H15.2103V4.10545C15.2103 4.59399 15.0162 5.06253 14.6708 5.40798C14.3253 5.75343 13.8568 5.94751 13.3683 5.94751H11.263C10.2457 5.94751 9.42097 5.12279 9.42097 4.10545V3.57914H8.29468C7.92056 3.56117 7.60153 3.84736 7.57891 4.22123V19.7788C7.60153 20.1526 7.92056 20.4388 8.29468 20.4209H16.3366Z" fill="black"/>
</svg>
