<svg width="24" height="24" viewBox="0 0 24 24" fill="none" xmlns="http://www.w3.org/2000/svg">
<path fill-rule="evenodd" clip-rule="evenodd" d="M5.79563 7.34655L10.6741 10.1704C11.4669 10.6197 11.9569 11.4606 11.9569 12.3718C11.9569 13.2831 11.4669 14.1239 10.6741 14.5732L5.79563 17.387C5.41138 17.6084 4.97384 17.7204 4.53045 17.7109C3.85936 17.7109 3.21576 17.4443 2.74123 16.9697C2.26669 16.4952 2.0001 15.8516 2.0001 15.1805V9.54289C1.99194 8.63533 2.4724 7.79347 3.25796 7.3389C4.04352 6.88432 5.01283 6.88724 5.79563 7.34655ZM5.03652 16.051L9.91504 13.2068V13.2473C10.2272 13.0663 10.4193 12.7327 10.4193 12.3718C10.4193 12.011 10.2272 11.6774 9.91504 11.4963L5.03652 8.67245C4.88325 8.58148 4.70868 8.5326 4.53045 8.53075C3.97146 8.53075 3.51831 8.9839 3.51831 9.54289V15.1805C3.52048 15.541 3.71425 15.8732 4.02701 16.0525C4.33977 16.2318 4.72431 16.2312 5.03652 16.051Z" fill="black"/>
<path d="M15.4616 7.16436C15.0446 7.16981 14.7079 7.5065 14.7025 7.92347V16.9214C14.7025 17.3406 15.0423 17.6805 15.4616 17.6805C15.8808 17.6805 16.2207 17.3406 16.2207 16.9214V7.92347C16.2207 7.72214 16.1407 7.52906 15.9983 7.3867C15.856 7.24434 15.6629 7.16436 15.4616 7.16436Z" fill="black"/>
<path d="M21.2409 7.16436C20.8239 7.16981 20.4872 7.5065 20.4818 7.92347V16.9214C20.4818 17.3406 20.8217 17.6805 21.2409 17.6805C21.6601 17.6805 22 17.3406 22 16.9214V7.92347C21.9945 7.5065 21.6579 7.16981 21.2409 7.16436Z" fill="black"/>
</svg>
