<svg width="24" height="24" viewBox="0 0 24 24" fill="none" xmlns="http://www.w3.org/2000/svg">
<path d="M21.1429 11.1429H12.8571V2.85714C12.8571 2.38376 12.4734 2 12 2C11.5266 2 11.1429 2.38376 11.1429 2.85714V11.1429H2.85714C2.38376 11.1429 2 11.5266 2 12C2 12.4734 2.38376 12.8571 2.85714 12.8571H11.1429V21.1429C11.1429 21.6162 11.5266 22 12 22C12.4734 22 12.8571 21.6162 12.8571 21.1429V12.8571H21.1429C21.6162 12.8571 22 12.4734 22 12C22 11.5266 21.6162 11.1429 21.1429 11.1429Z" fill="black"/>
</svg>
