<svg width="24" height="24" viewBox="0 0 24 24" fill="none" xmlns="http://www.w3.org/2000/svg">
<path fill-rule="evenodd" clip-rule="evenodd" d="M2 12C2 6.47715 6.47715 2 12 2C17.5228 2 22 6.47715 22 12C22 14.9325 20.7377 17.5702 18.7268 19.3994C18.7022 19.4253 18.6755 19.4494 18.6466 19.4716C16.8798 21.0444 14.5515 22 12 22C9.44799 22 7.11927 21.044 5.35237 19.4707C5.32436 19.4491 5.29834 19.4256 5.27437 19.4005C3.2628 17.5713 2 14.9331 2 12ZM6.67093 18.7563C8.13644 19.9138 9.98754 20.6047 12 20.6047C14.0125 20.6047 15.8636 19.9137 17.3292 18.7562C16.8156 17.9322 16.1165 17.2361 15.2848 16.7255C14.2967 16.1191 13.1597 15.7984 12 15.7984C10.8403 15.7984 9.70344 16.1191 8.71534 16.7255C7.88356 17.2361 7.18445 17.9322 6.67093 18.7563ZM9.27893 14.9013C8.83072 15.0712 8.39752 15.2834 7.98544 15.5363L7.9854 15.5363C7.04656 16.1127 6.24599 16.8823 5.63467 17.79C4.24345 16.2614 3.39535 14.2297 3.39535 12C3.39535 7.24778 7.24778 3.39535 12 3.39535C16.7522 3.39535 20.6047 7.24778 20.6047 12C20.6047 14.2297 19.7566 16.2613 18.3654 17.7899C17.7541 16.8822 16.9535 16.1126 16.0148 15.5364L16.0147 15.5363C15.6026 15.2834 15.1694 15.0711 14.7211 14.9013C15.8451 14.068 16.5736 12.7315 16.5736 11.2248C16.5736 8.69887 14.5259 6.65116 12 6.65116C9.47407 6.65116 7.42636 8.69887 7.42636 11.2248C7.42636 12.7315 8.15491 14.068 9.27893 14.9013ZM12 8.04651C10.2447 8.04651 8.82171 9.4695 8.82171 11.2248C8.82171 12.9801 10.2447 14.4031 12 14.4031C13.7553 14.4031 15.1783 12.9801 15.1783 11.2248C15.1783 9.4695 13.7553 8.04651 12 8.04651Z" fill="black"/>
</svg>
