<svg width="24" height="24" viewBox="0 0 24 24" fill="none" xmlns="http://www.w3.org/2000/svg">
<path d="M16.5663 5.01776C16.0934 5.01776 15.7101 5.40108 15.7101 5.87392C15.7101 6.34677 16.0934 6.73009 16.5663 6.73009C18.612 6.74247 20.269 8.39447 20.2877 10.4401V12.7232C20.269 14.7689 18.612 16.4209 16.5663 16.4333H14.032L15.5959 14.8808C15.9298 14.5465 15.9298 14.005 15.5959 13.6707C15.4369 13.5075 15.2187 13.4155 14.9909 13.4155C14.7631 13.4155 14.5449 13.5075 14.3859 13.6707L11.3608 16.6844C11.2834 16.7636 11.2214 16.8565 11.1781 16.9584C11.0985 17.1719 11.0985 17.407 11.1781 17.6205C11.2214 17.7224 11.2834 17.8153 11.3608 17.8945L14.3859 20.9082C14.7202 21.242 15.2617 21.242 15.5959 20.9082C15.9298 20.5739 15.9298 20.0324 15.5959 19.6981L14.032 18.1456H16.5663C19.5576 18.1332 21.9813 15.7146 22 12.7232V10.4401C21.9813 7.44879 19.5576 5.03021 16.5663 5.01776Z" fill="black"/>
<path d="M12.8219 6.20499C12.9015 5.99147 12.9015 5.75641 12.8219 5.54289C12.7746 5.44322 12.7131 5.35093 12.6393 5.26891L9.61415 2.25522C9.45515 2.09203 9.23697 2 9.00913 2C8.78129 2 8.56311 2.09203 8.40411 2.25522C8.07026 2.58948 8.07026 3.131 8.40411 3.46526L9.96804 5.01777H7.43379C4.44241 5.03023 2.01875 7.4488 2 10.4401V12.7233C2.01875 15.7146 4.44241 18.1332 7.43379 18.1456C7.90664 18.1456 8.28995 17.7623 8.28995 17.2895C8.28995 16.8166 7.90664 16.4333 7.43379 16.4333C5.38808 16.4209 3.731 14.7689 3.71233 12.7233V10.4401C3.731 8.39448 5.38808 6.74249 7.43379 6.7301H9.95662L8.40411 8.28261C8.07026 8.61688 8.07026 9.15839 8.40411 9.49266C8.73838 9.82651 9.27989 9.82651 9.61415 9.49266L12.6393 6.47896C12.7131 6.39694 12.7746 6.30466 12.8219 6.20499Z" fill="black"/>
</svg>
