<svg width="24" height="24" viewBox="0 0 24 24" fill="none" xmlns="http://www.w3.org/2000/svg">
<path d="M21.6744 9.75179C21.3209 9.4 20.9553 9.0375 20.8175 8.71875C20.69 8.42679 20.6825 7.94286 20.675 7.47411C20.6609 6.60268 20.6459 5.61518 19.925 4.92857C19.2041 4.24196 18.1672 4.22768 17.2522 4.21429C16.76 4.20714 16.2519 4.2 15.9453 4.07857C15.6116 3.94732 15.23 3.59911 14.8606 3.2625C14.2137 2.67054 13.4788 2 12.5 2C11.5212 2 10.7872 2.67054 10.1394 3.2625C9.77 3.59911 9.38938 3.94732 9.05469 4.07857C8.75 4.2 8.24 4.20714 7.74781 4.21429C6.83281 4.22768 5.79594 4.24196 5.075 4.92857C4.35406 5.61518 4.34375 6.60268 4.325 7.47411C4.3175 7.94286 4.31 8.42679 4.1825 8.71875C4.04469 9.03661 3.67906 9.4 3.32562 9.75179C2.70406 10.3687 2 11.0679 2 12C2 12.9321 2.70406 13.6312 3.32562 14.2482C3.67906 14.6 4.04469 14.9625 4.1825 15.2812C4.31 15.5732 4.3175 16.0571 4.325 16.5259C4.33906 17.3973 4.35406 18.3848 5.075 19.0714C5.79594 19.758 6.83281 19.7723 7.74781 19.7857C8.24 19.7929 8.74813 19.8 9.05469 19.9214C9.38844 20.0527 9.77 20.4009 10.1394 20.7375C10.7863 21.3295 11.5212 22 12.5 22C13.4788 22 14.2128 21.3295 14.8606 20.7375C15.23 20.4009 15.6106 20.0527 15.9453 19.9214C16.2519 19.8 16.76 19.7929 17.2522 19.7857C18.1672 19.7723 19.2041 19.758 19.925 19.0714C20.6459 18.3848 20.6609 17.3973 20.675 16.5259C20.6825 16.0571 20.69 15.5732 20.8175 15.2812C20.9553 14.9634 21.3209 14.6 21.6744 14.2482C22.2959 13.6312 23 12.9321 23 12C23 11.0679 22.2959 10.3687 21.6744 9.75179ZM20.5916 13.2598C20.1425 13.7063 19.6775 14.1679 19.4309 14.7348C19.1947 15.2795 19.1844 15.9018 19.175 16.5045C19.1656 17.1295 19.1553 17.7839 18.8638 18.0607C18.5722 18.3375 17.8897 18.3482 17.2297 18.3571C16.5969 18.3661 15.9434 18.3759 15.3716 18.6009C14.7763 18.8357 14.2916 19.2786 13.8228 19.7063C13.3541 20.1339 12.875 20.5714 12.5 20.5714C12.125 20.5714 11.6422 20.1321 11.1772 19.7063C10.7122 19.2804 10.2238 18.8357 9.62844 18.6009C9.05656 18.3759 8.40313 18.3661 7.77031 18.3571C7.11406 18.3482 6.42688 18.3384 6.13625 18.0607C5.84562 17.783 5.83437 17.133 5.825 16.5045C5.81562 15.9018 5.80531 15.2795 5.56906 14.7348C5.3225 14.1679 4.8575 13.7063 4.40844 13.2598C3.95937 12.8134 3.5 12.3571 3.5 12C3.5 11.6429 3.96125 11.1839 4.40844 10.7402C4.85562 10.2964 5.3225 9.83214 5.56906 9.26518C5.80531 8.72054 5.81562 8.09822 5.825 7.49554C5.83437 6.87054 5.84469 6.21607 6.13625 5.93929C6.42781 5.6625 7.11031 5.65179 7.77031 5.64286C8.40313 5.63393 9.05656 5.62411 9.62844 5.39911C10.2238 5.16429 10.7084 4.72143 11.1772 4.29375C11.6459 3.86607 12.125 3.42857 12.5 3.42857C12.875 3.42857 13.3578 3.86786 13.8228 4.29375C14.2878 4.71964 14.7763 5.16429 15.3716 5.39911C15.9434 5.62411 16.5969 5.63393 17.2297 5.64286C17.8859 5.65179 18.5731 5.66161 18.8638 5.93929C19.1544 6.21696 19.1656 6.86696 19.175 7.49554C19.1844 8.09822 19.1947 8.72054 19.4309 9.26518C19.6775 9.83214 20.1425 10.2938 20.5916 10.7402C21.0406 11.1866 21.5 11.6429 21.5 12C21.5 12.3571 21.0387 12.8161 20.5916 13.2598ZM11.75 9.14286C11.75 8.71904 11.618 8.30474 11.3708 7.95235C11.1236 7.59996 10.7722 7.3253 10.361 7.16312C9.9499 7.00093 9.4975 6.95849 9.06105 7.04117C8.62459 7.12386 8.22368 7.32794 7.90901 7.62763C7.59434 7.92731 7.38005 8.30913 7.29323 8.72481C7.20642 9.14048 7.25097 9.57134 7.42127 9.96289C7.59157 10.3544 7.87996 10.6891 8.24997 10.9246C8.61998 11.16 9.05499 11.2857 9.5 11.2857C10.0967 11.2857 10.669 11.06 11.091 10.6581C11.5129 10.2562 11.75 9.71118 11.75 9.14286ZM8.75 9.14286C8.75 9.00159 8.79399 8.86348 8.8764 8.74602C8.95881 8.62856 9.07594 8.53701 9.21299 8.48294C9.35003 8.42888 9.50083 8.41474 9.64632 8.4423C9.7918 8.46986 9.92544 8.53789 10.0303 8.63778C10.1352 8.73768 10.2066 8.86495 10.2356 9.00351C10.2645 9.14207 10.2497 9.28568 10.1929 9.4162C10.1361 9.54672 10.04 9.65828 9.91668 9.73676C9.79334 9.81525 9.64834 9.85714 9.5 9.85714C9.30109 9.85714 9.11032 9.78189 8.96967 9.64793C8.82902 9.51398 8.75 9.3323 8.75 9.14286ZM15.5 12.7143C15.055 12.7143 14.62 12.84 14.25 13.0754C13.88 13.3109 13.5916 13.6456 13.4213 14.0371C13.251 14.4287 13.2064 14.8595 13.2932 15.2752C13.38 15.6909 13.5943 16.0727 13.909 16.3724C14.2237 16.6721 14.6246 16.8761 15.061 16.9588C15.4975 17.0415 15.9499 16.9991 16.361 16.8369C16.7722 16.6747 17.1236 16.4 17.3708 16.0477C17.618 15.6953 17.75 15.281 17.75 14.8571C17.75 14.2888 17.5129 13.7438 17.091 13.3419C16.669 12.9401 16.0967 12.7143 15.5 12.7143ZM15.5 15.5714C15.3517 15.5714 15.2067 15.5295 15.0833 15.4511C14.96 15.3726 14.8639 15.261 14.8071 15.1305C14.7503 15 14.7355 14.8563 14.7644 14.7178C14.7934 14.5792 14.8648 14.452 14.9697 14.3521C15.0746 14.2522 15.2082 14.1841 15.3537 14.1566C15.4992 14.129 15.65 14.1432 15.787 14.1972C15.9241 14.2513 16.0412 14.3428 16.1236 14.4603C16.206 14.5778 16.25 14.7159 16.25 14.8571C16.25 15.0466 16.171 15.2283 16.0303 15.3622C15.8897 15.4962 15.6989 15.5714 15.5 15.5714ZM16.7806 8.93393L9.28063 16.0768C9.21094 16.1432 9.12822 16.1958 9.03717 16.2317C8.94613 16.2676 8.84855 16.2861 8.75 16.2861C8.65145 16.2861 8.55387 16.2676 8.46283 16.2317C8.37178 16.1958 8.28906 16.1432 8.21937 16.0768C8.14969 16.0104 8.09442 15.9316 8.0567 15.8449C8.01899 15.7582 7.99958 15.6653 7.99958 15.5714C7.99958 15.4776 8.01899 15.3846 8.0567 15.2979C8.09442 15.2112 8.14969 15.1324 8.21937 15.0661L15.7194 7.92321C15.7891 7.85685 15.8718 7.80421 15.9628 7.76829C16.0539 7.73237 16.1515 7.71389 16.25 7.71389C16.3485 7.71389 16.4461 7.73237 16.5372 7.76829C16.6282 7.80421 16.7109 7.85685 16.7806 7.92321C16.8503 7.98958 16.9056 8.06836 16.9433 8.15507C16.981 8.24178 17.0004 8.33472 17.0004 8.42857C17.0004 8.52243 16.981 8.61536 16.9433 8.70207C16.9056 8.78878 16.8503 8.86756 16.7806 8.93393Z" fill="black"/>
</svg>
