<svg width="24" height="24" viewBox="0 0 24 24" fill="none" xmlns="http://www.w3.org/2000/svg">
<path fill-rule="evenodd" clip-rule="evenodd" d="M3.07523 7.74137C4.51952 4.2733 7.90356 2.01029 11.6604 2.00026C15.7093 1.97894 19.3095 4.57241 20.5716 8.41964C21.8337 12.2669 20.4695 16.489 17.1948 18.8703C13.92 21.2515 9.48299 21.248 6.2121 18.8615L3.29557 21.778C2.99904 22.0742 2.51865 22.0742 2.22212 21.778C1.92596 21.4815 1.92596 21.0011 2.22212 20.7046L5.04751 17.8792C2.40836 15.2055 1.63093 11.2095 3.07523 7.74137ZM4.42934 14.3236C5.642 17.2458 8.49645 19.1491 11.6604 19.145V19.1045C15.9544 19.099 19.4403 15.6312 19.4682 11.3372C19.4722 8.17332 17.569 5.31887 14.6467 4.10621C11.7244 2.89354 8.35933 3.56177 6.12212 5.79899C3.8849 8.0362 3.21668 11.4013 4.42934 14.3236Z" fill="black"/>
</svg>
