<svg width="24" height="24" viewBox="0 0 24 24" fill="none" xmlns="http://www.w3.org/2000/svg">
<path fill-rule="evenodd" clip-rule="evenodd" d="M19.578 8.86463C19.7724 9.338 20.233 9.64767 20.7449 9.64916C21.4397 9.65476 22 10.2193 22 10.9138V13.0964C22 13.7948 21.4335 14.361 20.7347 14.361C20.2228 14.3625 19.7622 14.6722 19.5678 15.1456C19.3734 15.6189 19.4836 16.1627 19.8469 16.5232C20.3343 17.0224 20.3343 17.819 19.8469 18.3182L18.3163 19.848C17.8169 20.3352 17.0198 20.3352 16.5204 19.848C16.29 19.6041 15.9683 19.4673 15.6327 19.4707C15.2953 19.468 14.9708 19.6 14.7313 19.8375C14.4918 20.0749 14.3571 20.3982 14.3571 20.7353C14.3571 21.4338 13.7906 22 13.0918 22H10.9082C10.2094 22 9.64286 21.4338 9.64286 20.7353C9.64287 20.3982 9.50816 20.0749 9.26866 19.8375C9.02915 19.6 8.70469 19.468 8.36735 19.4707C8.03174 19.4673 7.70996 19.6041 7.47959 19.848C6.98015 20.3352 6.18311 20.3352 5.68367 19.848L4.15306 18.3182C3.66568 17.819 3.66568 17.0224 4.15306 16.5232C4.51637 16.1627 4.62656 15.6189 4.4322 15.1456C4.23784 14.6722 3.77724 14.3625 3.26531 14.361C2.92973 14.361 2.60789 14.2278 2.3706 13.9906C2.13331 13.7535 2 13.4318 2 13.0964V10.9138C2 10.2154 2.5665 9.64916 3.26531 9.64916C3.77724 9.64767 4.23784 9.338 4.4322 8.86463C4.62656 8.39127 4.51637 7.84749 4.15306 7.487C3.66568 6.98781 3.66568 6.19118 4.15306 5.69199L5.68367 4.16216C6.18311 3.67503 6.98015 3.67503 7.47959 4.16216C7.70996 4.40611 8.03174 4.54289 8.36735 4.53952C8.70647 4.54227 9.0325 4.40883 9.2723 4.16915C9.5121 3.92947 9.6456 3.60361 9.64286 3.26466C9.64286 2.56621 10.2094 2 10.9082 2H13.102C13.8008 2 14.3673 2.56621 14.3673 3.26466C14.3646 3.60361 14.4981 3.92947 14.7379 4.16915C14.9777 4.40883 15.3037 4.54227 15.6429 4.53952C15.9785 4.54289 16.3002 4.40611 16.5306 4.16216C17.0301 3.67503 17.8271 3.67503 18.3265 4.16216L19.8571 5.69199C20.3445 6.19118 20.3445 6.98781 19.8571 7.487C19.4938 7.84749 19.3836 8.39127 19.578 8.86463ZM18.1224 14.5548C18.5208 13.5841 19.4329 12.9211 20.4796 12.8414L20.449 11.1688C19.4137 11.0781 18.5158 10.4168 18.1224 9.45538C17.7371 8.49166 17.9136 7.3942 18.5816 6.59969L17.4082 5.42682C16.9105 5.84336 16.2817 6.07091 15.6327 6.06935C14.1866 6.06581 12.9782 4.96823 12.8367 3.52983H11.1633C11.0264 4.97052 9.81526 6.07057 8.36735 6.06935C7.71826 6.07091 7.08947 5.84336 6.59184 5.42682L5.44898 6.59969C6.10666 7.40026 6.27128 8.49718 5.87755 9.45538C5.48415 10.4168 4.58632 11.0781 3.55102 11.1688V12.8414C4.58632 12.9321 5.48415 13.5934 5.87755 14.5548C6.2629 15.5185 6.08643 16.616 5.41837 17.4105L6.59184 18.5834C7.08947 18.1668 7.71826 17.9393 8.36735 17.9408C9.81341 17.9444 11.0218 19.042 11.1633 20.4804H12.8367C12.9643 19.035 14.181 17.9299 15.6327 17.9408C16.2817 17.9393 16.9105 18.1668 17.4082 18.5834L18.551 17.4105C17.8933 16.6099 17.7287 15.513 18.1224 14.5548Z" fill="black"/>
<path fill-rule="evenodd" clip-rule="evenodd" d="M8.46939 12.0051C8.46939 10.0562 10.0501 8.47629 12 8.47629C12.9364 8.47629 13.8344 8.84807 14.4965 9.50985C15.1586 10.1716 15.5306 11.0692 15.5306 12.0051C15.5306 13.954 13.9499 15.5339 12 15.5339C10.0501 15.5339 8.46939 13.954 8.46939 12.0051ZM9.95918 12.0051C9.95918 13.1316 10.8729 14.0449 12 14.0449C13.1271 14.0449 14.0408 13.1316 14.0408 12.0051C14.0408 10.8786 13.1271 9.96532 12 9.96532C10.8729 9.96532 9.95918 10.8786 9.95918 12.0051Z" fill="black"/>
</svg>
