<svg width="24" height="24" viewBox="0 0 24 24" fill="none" xmlns="http://www.w3.org/2000/svg">
<path fill-rule="evenodd" clip-rule="evenodd" d="M15.3987 16.2054C15.9231 16.2068 16.4372 16.3514 16.8854 16.6235H16.8738C18.2253 17.4296 18.6843 19.1684 17.9067 20.5365C17.1291 21.9046 15.4004 22.3999 14.0163 21.6512C12.6322 20.9025 12.1007 19.1845 12.8202 17.785L9.41701 14.3121C9.17127 14.4617 8.90527 14.5752 8.62719 14.649C8.39564 14.7084 8.15774 14.7396 7.91868 14.7419C6.44506 14.7494 5.19951 13.6518 5.02148 12.189C4.84344 10.7262 5.78939 9.36191 7.22178 9.01571C7.44986 8.96008 7.68392 8.93277 7.91868 8.9344C8.5181 8.93487 9.10256 9.12157 9.59124 9.46869L12.8202 6.23973C12.3391 5.34087 12.369 4.25469 12.8988 3.38366C13.4286 2.51262 14.3793 1.98651 15.3987 2.00026C15.9221 1.99762 16.4362 2.1382 16.8854 2.40679C17.7984 2.90889 18.3741 3.85989 18.3957 4.90156C18.4173 5.94322 17.8816 6.91729 16.9903 7.45685C16.099 7.99641 14.9875 8.01948 14.0746 7.51738L10.6598 10.9322C10.6977 11.0147 10.7288 11.1001 10.7527 11.1877C10.907 11.8129 10.8456 12.4718 10.5785 13.0577L14.063 16.5422C14.4756 16.3265 14.9332 16.2111 15.3987 16.2054ZM15.3987 3.74251C14.991 3.74014 14.6119 3.95174 14.3998 4.30003C14.2415 4.56554 14.1955 4.88324 14.2721 5.18277C14.3391 5.48183 14.5288 5.73894 14.7947 5.89128C14.9729 6.00174 15.1776 6.06194 15.3871 6.0655C15.7972 6.06543 16.1769 5.84912 16.386 5.49637C16.7151 4.94772 16.5385 4.23625 15.9911 3.90512C15.8133 3.79534 15.6077 3.7389 15.3987 3.74251ZM7.91868 12.9996C7.37197 13.0156 6.88822 12.6479 6.75718 12.1169C6.68405 11.8158 6.73423 11.498 6.89656 11.2342C7.05499 10.9737 7.30946 10.786 7.60508 10.7115H7.88384C8.43055 10.6956 8.9143 11.0632 9.04533 11.5942C9.11872 11.8901 9.07283 12.203 8.91757 12.4654L8.84788 12.5467C8.6938 12.7671 8.46801 12.9272 8.20905 12.9996H7.91868ZM15.3871 20.2125C15.7948 20.2149 16.174 20.0033 16.386 19.655C16.677 19.1195 16.5046 18.4501 15.9911 18.1218C15.813 18.0114 15.6083 17.9512 15.3987 17.9476C14.9886 17.9477 14.609 18.164 14.3998 18.5168C14.0708 19.0654 14.2473 19.7769 14.7947 20.108C14.9785 20.1976 15.1838 20.2339 15.3871 20.2125Z" fill="black"/>
</svg>
