<svg width="24" height="24" viewBox="0 0 24 24" fill="none" xmlns="http://www.w3.org/2000/svg">
<path d="M12 8C11.4349 8 10.8825 8.17595 10.4127 8.50559C9.9428 8.83524 9.5766 9.30377 9.36034 9.85195C9.14409 10.4001 9.08751 11.0033 9.19776 11.5853C9.308 12.1672 9.58012 12.7018 9.9797 13.1213C10.3793 13.5409 10.8884 13.8266 11.4426 13.9424C11.9968 14.0581 12.5713 13.9987 13.0934 13.7716C13.6155 13.5446 14.0617 13.1601 14.3756 12.6667C14.6896 12.1734 14.8571 11.5933 14.8571 11C14.8571 10.2043 14.5561 9.44129 14.0203 8.87868C13.4845 8.31607 12.7578 8 12 8ZM12 12.5C11.7175 12.5 11.4413 12.412 11.2063 12.2472C10.9714 12.0824 10.7883 11.8481 10.6802 11.574C10.572 11.2999 10.5438 10.9983 10.5989 10.7074C10.654 10.4164 10.7901 10.1491 10.9898 9.93934C11.1896 9.72956 11.4442 9.5867 11.7213 9.52882C11.9984 9.47094 12.2857 9.50065 12.5467 9.61418C12.8077 9.72771 13.0308 9.91997 13.1878 10.1666C13.3448 10.4133 13.4286 10.7033 13.4286 11C13.4286 11.3978 13.2781 11.7794 13.0102 12.0607C12.7422 12.342 12.3789 12.5 12 12.5ZM4.85714 8C4.29205 8 3.73966 8.17595 3.2698 8.50559C2.79995 8.83524 2.43374 9.30377 2.21749 9.85195C2.00124 10.4001 1.94466 11.0033 2.0549 11.5853C2.16514 12.1672 2.43726 12.7018 2.83684 13.1213C3.23642 13.5409 3.74551 13.8266 4.29974 13.9424C4.85397 14.0581 5.42845 13.9987 5.95053 13.7716C6.4726 13.5446 6.91882 13.1601 7.23277 12.6667C7.54672 12.1734 7.71429 11.5933 7.71429 11C7.71429 10.2043 7.41327 9.44129 6.87745 8.87868C6.34163 8.31607 5.61491 8 4.85714 8ZM4.85714 12.5C4.5746 12.5 4.2984 12.412 4.06347 12.2472C3.82854 12.0824 3.64544 11.8481 3.53732 11.574C3.42919 11.2999 3.4009 10.9983 3.45602 10.7074C3.51114 10.4164 3.6472 10.1491 3.84699 9.93934C4.04678 9.72956 4.30133 9.5867 4.57844 9.52882C4.85556 9.47094 5.1428 9.50065 5.40383 9.61418C5.66487 9.72771 5.88798 9.91997 6.04496 10.1666C6.20193 10.4133 6.28572 10.7033 6.28572 11C6.28572 11.3978 6.13521 11.7794 5.8673 12.0607C5.59939 12.342 5.23602 12.5 4.85714 12.5ZM19.1429 8C18.5778 8 18.0254 8.17595 17.5555 8.50559C17.0857 8.83524 16.7195 9.30377 16.5032 9.85195C16.287 10.4001 16.2304 11.0033 16.3406 11.5853C16.4509 12.1672 16.723 12.7018 17.1226 13.1213C17.5221 13.5409 18.0312 13.8266 18.5855 13.9424C19.1397 14.0581 19.7142 13.9987 20.2362 13.7716C20.7583 13.5446 21.2045 13.1601 21.5185 12.6667C21.8324 12.1734 22 11.5933 22 11C22 10.2043 21.699 9.44129 21.1632 8.87868C20.6273 8.31607 19.9006 8 19.1429 8ZM19.1429 12.5C18.8603 12.5 18.5841 12.412 18.3492 12.2472C18.1143 12.0824 17.9312 11.8481 17.823 11.574C17.7149 11.2999 17.6866 10.9983 17.7417 10.7074C17.7969 10.4164 17.9329 10.1491 18.1327 9.93934C18.3325 9.72956 18.587 9.5867 18.8642 9.52882C19.1413 9.47094 19.4285 9.50065 19.6895 9.61418C19.9506 9.72771 20.1737 9.91997 20.3307 10.1666C20.4876 10.4133 20.5714 10.7033 20.5714 11C20.5714 11.3978 20.4209 11.7794 20.153 12.0607C19.8851 12.342 19.5217 12.5 19.1429 12.5Z" fill="black"/>
</svg>
