<svg width="24" height="24" viewBox="0 0 24 24" fill="none" xmlns="http://www.w3.org/2000/svg">
<path d="M19.1073 7.10725C18.6616 7.10725 18.3003 7.46853 18.3003 7.9142V16.9438C18.3003 18.8449 16.7591 20.3861 14.858 20.3861H9.05618C7.15506 20.3861 5.61389 18.8449 5.61389 16.9438V7.9142C5.61389 7.46853 5.25261 7.10725 4.80695 7.10725C4.36128 7.10725 4 7.46853 4 7.9142V16.9438C4.02801 19.7445 6.30642 22.0001 9.10725 22H14.9091C17.69 21.9723 19.9376 19.7247 19.9653 16.9438V7.9142C19.9657 7.69103 19.8737 7.47765 19.7112 7.32476C19.5486 7.17187 19.33 7.09313 19.1073 7.10725Z" fill="black"/>
<path fill-rule="evenodd" clip-rule="evenodd" d="M19.1073 5.65679H4.80695C4.36128 5.65679 4 5.29551 4 4.84985C4 4.40418 4.36128 4.0429 4.80695 4.0429H7.51379L8.7191 2.73544C9.17985 2.26702 9.80874 2.00222 10.4658 2H13.4484C14.0959 1.99999 14.7168 2.25719 15.1747 2.71502L16.4004 4.0429H19.1073C19.5529 4.0429 19.9142 4.40418 19.9142 4.84985C19.9142 5.29551 19.5529 5.65679 19.1073 5.65679ZM13.4484 3.61389H10.4658C10.2616 3.61396 10.0648 3.69049 9.9142 3.8284L9.72012 4.03269H14.1941L14 3.8284C13.8505 3.68873 13.653 3.61192 13.4484 3.61389Z" fill="black"/>
<path d="M8.12666 8.93565V12C8.12666 12.4231 8.46965 12.7661 8.89275 12.7661C9.31585 12.7661 9.65883 12.4231 9.65883 12V8.93565C9.65883 8.51255 9.31585 8.16956 8.89275 8.16956C8.46965 8.16956 8.12666 8.51255 8.12666 8.93565Z" fill="black"/>
<path d="M11.191 8.93565V17.1073C11.191 17.5304 11.534 17.8733 11.9571 17.8733C12.3802 17.8733 12.7232 17.5304 12.7232 17.1073V8.93565C12.7232 8.51255 12.3802 8.16956 11.9571 8.16956C11.534 8.16956 11.191 8.51255 11.191 8.93565Z" fill="black"/>
<path d="M14.2554 8.93565V12C14.2554 12.4231 14.5984 12.7661 15.0215 12.7661C15.4445 12.7661 15.7875 12.4231 15.7875 12V8.93565C15.7875 8.51255 15.4445 8.16956 15.0215 8.16956C14.5984 8.16956 14.2554 8.51255 14.2554 8.93565Z" fill="black"/>
</svg>
