<svg width="14" height="14" viewBox="0 0 14 14" fill="none" xmlns="http://www.w3.org/2000/svg">
<path fill-rule="evenodd" clip-rule="evenodd" d="M2.64228 6.93229C2.04099 6.93229 1.48582 7.12671 1.04123 7.45357V6.75335C1.01349 5.20667 1.60283 3.76 2.71216 2.67333C3.81456 1.59333 5.29829 1 6.89988 1C10.1724 1 12.8279 3.56 12.8279 6.70001V7.45437C12.3831 7.12703 11.8275 6.93229 11.2257 6.93229H11.1356C9.67961 6.93229 8.49401 8.07229 8.49401 9.47229V10.7256C8.49401 12.1256 9.67961 13.2656 11.1356 13.2656H11.2257C12.6817 13.2656 13.8673 12.1256 13.8673 10.7256V10.5226C13.8677 10.5151 13.8679 10.5076 13.8679 10.5V6.70001C13.8679 3.00667 10.7409 0 6.89988 0C5.02096 0 3.27376 0.7 1.97029 1.97333C0.666828 3.25333 -0.0334385 4.96 0.00122815 6.76668V9.42005C0.000861363 9.43742 0.000677083 9.45484 0.000677083 9.47229V10.7256C0.000677083 12.1256 1.18628 13.2656 2.64228 13.2656H2.73241C4.18841 13.2656 5.37401 12.1256 5.37401 10.7256V9.47229C5.37401 8.07229 4.18841 6.93229 2.73241 6.93229H2.64228ZM1.04068 10.7256V10.5838C1.04104 10.5759 1.04123 10.568 1.04123 10.56V9.43171C1.06377 8.60259 1.77476 7.93229 2.64228 7.93229H2.73241C3.61403 7.93229 4.33401 8.62458 4.33401 9.47229V10.7256C4.33401 11.5733 3.61403 12.2656 2.73241 12.2656H2.64228C1.76065 12.2656 1.04068 11.5733 1.04068 10.7256ZM11.1356 7.93229H11.2257C12.1074 7.93229 12.8273 8.62458 12.8273 9.47229V10.7256C12.8273 11.5733 12.1074 12.2656 11.2257 12.2656H11.1356C10.254 12.2656 9.53401 11.5733 9.53401 10.7256V9.47229C9.53401 8.62458 10.254 7.93229 11.1356 7.93229Z" fill="black"/>
</svg>
