<svg width="24" height="24" viewBox="0 0 24 24" fill="none" xmlns="http://www.w3.org/2000/svg">
<path fill-rule="evenodd" clip-rule="evenodd" d="M12.5001 2C9.27006 2 6.65159 4.39476 6.65159 7.34884C6.65159 10.3029 9.27006 12.6977 12.5001 12.6977C15.7301 12.6977 18.3486 10.3029 18.3486 7.34884C18.3486 4.39476 15.7301 2 12.5001 2ZM8.17729 7.34884C8.17729 5.16539 10.1127 3.39535 12.5001 3.39535C14.8875 3.39535 16.8229 5.16539 16.8229 7.34884C16.8229 9.53228 14.8875 11.3023 12.5001 11.3023C10.1127 11.3023 8.17729 9.53228 8.17729 7.34884Z" fill="black"/>
<path d="M12.5 14.093C7.41143 14.093 3 17.1899 3 21.3023C3 21.6876 3.34154 22 3.76285 22C4.18416 22 4.5257 21.6876 4.5257 21.3023C4.5257 18.2147 7.94618 15.4884 12.5 15.4884C17.0538 15.4884 20.4743 18.2147 20.4743 21.3023C20.4743 21.6876 20.8158 22 21.2372 22C21.6585 22 22 21.6876 22 21.3023C22 17.1899 17.5886 14.093 12.5 14.093Z" fill="black"/>
</svg>
