<svg width="24" height="24" viewBox="0 0 24 24" fill="none" xmlns="http://www.w3.org/2000/svg">
<path fill-rule="evenodd" clip-rule="evenodd" d="M8.71463 4.25607C9.45966 2.86482 10.9108 1.99745 12.489 2.00012C14.0951 1.98808 15.5764 2.86436 16.3393 4.27777L22.4564 15.6009C23.1821 16.9453 23.1472 18.5724 22.3644 19.8844C21.5816 21.1964 20.1664 22 18.6386 22H6.33937C4.80701 22.0004 3.38813 21.1923 2.60662 19.8742C1.82511 18.5561 1.79692 16.9235 2.53246 15.5792L8.71463 4.25607ZM14.8751 5.04783C14.4046 4.1685 13.4863 3.62166 12.489 3.62701C11.5064 3.63383 10.605 4.17381 10.1354 5.03698L3.96412 16.3384C3.50318 17.1765 3.51988 18.1958 4.00802 19.0183C4.49617 19.8408 5.38294 20.3437 6.33937 20.3406H18.6386C19.5917 20.3348 20.4723 19.831 20.9603 19.0124C21.4484 18.1938 21.4728 17.1796 21.0247 16.3384L14.8751 5.04783Z" fill="black"/>
<path d="M12.489 15.0153C12.0398 15.0153 11.6756 15.3795 11.6756 15.8288C11.6756 16.278 12.0398 16.6422 12.489 16.6422C12.7056 16.6452 12.9143 16.5604 13.0675 16.4072C13.2206 16.254 13.3054 16.0454 13.3025 15.8288C13.3025 15.614 13.2164 15.4082 13.0636 15.2574C12.9107 15.1066 12.7037 15.0233 12.489 15.0262V15.0153Z" fill="black"/>
<path d="M12.489 13.5295C12.0422 13.5236 11.6814 13.1628 11.6756 12.716V9.35378C11.6756 8.90452 12.0398 8.54033 12.489 8.54033C12.9383 8.54033 13.3025 8.90452 13.3025 9.35378V12.716C13.3025 13.1653 12.9383 13.5295 12.489 13.5295Z" fill="black"/>
</svg>
