<svg width="88" height="38" viewBox="0 0 88 38" fill="none" xmlns="http://www.w3.org/2000/svg">
<path d="M9.03862 38C6.99249 38 5.27672 37.6259 3.89131 36.8778C2.50591 36.1296 1.48284 35.1064 0.822108 33.8082C0.182691 32.5099 -0.0837332 31.0576 0.0228363 29.4513C0.235975 26.9428 1.1951 24.8854 2.90021 23.2791C4.60533 21.6507 7.09905 20.4185 10.3814 19.5823C9.59278 19.3183 9.13453 19.1752 9.00665 19.1532C7.77044 18.7572 6.80066 18.4601 6.0973 18.2621C5.41526 18.064 4.88241 17.965 4.49876 17.965C4.07248 17.965 3.71014 18.042 3.41175 18.1961C3.11335 18.3501 2.8789 18.5261 2.70839 18.7242C2.53788 18.9002 2.27145 19.2083 1.90912 19.6483C1.78123 19.8024 1.61072 19.8794 1.39758 19.8794C1.18444 19.8794 1.00328 19.8024 0.854079 19.6483C0.726195 19.4723 0.704881 19.2523 0.790137 18.9882C1.53612 15.7756 3.03875 14.1693 5.29803 14.1693C6.00139 14.1693 6.73672 14.3013 7.50402 14.5653C8.27132 14.8294 9.3157 15.2475 10.6372 15.8196C11.8734 16.3697 12.9284 16.7988 13.8023 17.1068C14.6975 17.4149 15.5713 17.6019 16.4239 17.6679C16.701 17.69 16.8395 17.833 16.8395 18.097C16.8395 18.163 16.8075 18.3611 16.7436 18.6912L16.0402 21.4637L14.3778 21.7608C14.4204 22.707 14.6868 23.3451 15.177 23.6751C15.6886 23.9832 16.5837 24.1372 17.8626 24.1372H18.6299L18.8537 26.1836L18.6299 28.2631H18.2143C16.9781 28.2631 15.9763 28.098 15.209 27.768C14.4417 27.4159 13.8449 26.7998 13.4186 25.9196C12.9923 25.0174 12.7579 23.7412 12.7153 22.0908C10.3707 22.6629 8.36723 23.3781 6.70475 24.2363C5.06358 25.0944 3.83803 25.9966 3.0281 26.9428C2.21817 27.867 1.8132 28.7472 1.8132 29.5833C1.8132 30.3755 2.12226 31.0906 2.74036 31.7288C3.35846 32.3889 4.22168 32.895 5.33 33.2471C6.43832 33.6211 7.69584 33.8082 9.10256 33.8082C11.6389 33.8082 14.1646 33.4341 16.6797 32.6859C16.7436 32.6639 16.8395 32.6529 16.9674 32.6529C17.2658 32.6529 17.415 32.818 17.415 33.148C17.415 33.3901 17.3617 33.6321 17.2551 33.8742C17.1486 34.1822 16.9781 34.5233 16.7436 34.8974C16.5305 35.2935 16.3173 35.6015 16.1042 35.8216C15.6353 36.3937 14.7081 36.8998 13.3227 37.3399C11.9586 37.78 10.5306 38 9.03862 38ZM7.18431 28.9562C7.07774 28.8462 7.02446 28.7582 7.02446 28.6921C7.02446 28.6261 7.07774 28.5381 7.18431 28.4281L8.91074 26.6127C9.01731 26.5027 9.10256 26.4477 9.1665 26.4477C9.25176 26.4477 9.32636 26.5027 9.3903 26.6127L11.1807 28.4281C11.2872 28.5381 11.3405 28.6261 11.3405 28.6921C11.3405 28.7142 11.2872 28.8022 11.1807 28.9562L9.42227 30.7716C9.35833 30.8596 9.28373 30.9036 9.19847 30.9036C9.13453 30.9036 9.05993 30.8596 8.97468 30.7716L7.18431 28.9562Z" fill="#744D7E"/>
<path d="M18.3459 24.1372H18.5697C19.5714 24.1372 20.3814 24.0052 20.9995 23.7412C21.6176 23.4771 22.1504 23.015 22.598 22.3549C23.0669 21.6727 23.4825 20.6936 23.8449 19.4173C23.9301 19.1973 24.0367 19.0322 24.1646 18.9222C24.3138 18.7902 24.463 18.7242 24.6122 18.7242C24.804 18.7242 24.9639 18.8012 25.0917 18.9552C25.2409 19.1092 25.3155 19.3183 25.3155 19.5823C25.2942 20.2425 25.2303 20.8916 25.1237 21.5297C25.0385 22.1678 24.9425 22.6519 24.836 22.982C25.0278 23.3341 25.4221 23.6201 26.0189 23.8402C26.6157 24.0382 27.2125 24.1372 27.8093 24.1372H28.129L28.3528 26.1836L28.129 28.2631H27.8093C26.7862 28.2631 25.891 28.01 25.1237 27.5039C24.3777 26.9758 23.8982 26.3267 23.685 25.5565C23.1735 26.3707 22.4808 27.0308 21.6069 27.5369C20.733 28.021 19.7206 28.2631 18.5697 28.2631H18.3459V24.1372ZM19.5608 14.2023C19.4755 14.1142 19.4329 14.0262 19.4329 13.9382C19.4329 13.8502 19.4755 13.7622 19.5608 13.6742L21.3192 11.8588C21.4257 11.7488 21.511 11.6938 21.5749 11.6938C21.6176 11.6938 21.6922 11.7488 21.7987 11.8588L23.5571 13.6742C23.6637 13.7622 23.717 13.8502 23.717 13.9382C23.717 14.0042 23.6637 14.0922 23.5571 14.2023L21.8307 16.0176C21.7455 16.1056 21.6709 16.1496 21.6069 16.1496C21.5217 16.1496 21.4364 16.1056 21.3511 16.0176L19.5608 14.2023Z" fill="#744D7E"/>
<path d="M30.2633 6.83236C30.0928 6.83236 29.869 6.77735 29.5919 6.66733C29.3148 6.5353 29.0697 6.40328 28.8566 6.27125C28.75 6.20524 28.6967 6.13922 28.6967 6.07321C28.6967 5.98519 28.782 5.91918 28.9525 5.87517L29.5919 5.71014C30.4231 5.49009 31.1371 5.28105 31.7339 5.08301C32.3307 4.88497 32.9169 4.62092 33.4923 4.29085L33.1726 4.32386C32.6824 4.32386 32.2242 4.19183 31.7979 3.92778C31.4995 3.75175 31.265 3.5317 31.0945 3.26765C30.9453 2.98159 30.8707 2.68453 30.8707 2.37647C30.8707 2.15643 30.9453 1.87037 31.0945 1.5183C31.3077 1.05621 31.5954 0.693138 31.9577 0.429086C32.3201 0.143029 32.6931 0 33.0767 0C33.2685 0 33.471 0.0550109 33.6842 0.165033C34.0678 0.363072 34.3449 0.671134 34.5154 1.08922C34.7072 1.4853 34.8031 1.93639 34.8031 2.44249C34.8031 2.86057 34.7392 3.26765 34.6113 3.66373C34.4834 4.05981 34.3129 4.40088 34.0998 4.68693C33.6522 5.23704 33.0234 5.72114 32.2135 6.13922C31.4036 6.55731 30.7535 6.78835 30.2633 6.83236ZM31.7659 1.55131C31.7233 1.68333 31.702 1.78235 31.702 1.84837C31.702 2.22244 31.9258 2.5305 32.3734 2.77255C32.8423 3.05861 33.3218 3.22364 33.812 3.26765C33.8547 2.84957 33.8014 2.46449 33.6522 2.11242C33.503 1.73835 33.3005 1.47429 33.0447 1.32026C32.8742 1.23225 32.6931 1.18824 32.5012 1.18824C32.2028 1.18824 31.9577 1.30926 31.7659 1.55131Z" fill="#744D7E"/>
<path d="M27.8997 24.1372H28.5391C30.0524 24.1372 31.4804 23.9942 32.8232 23.7082C34.1873 23.4221 35.1571 22.916 35.7325 22.1898C35.4981 21.1556 34.6988 19.8684 33.3347 18.3281C31.992 16.7878 30.5639 15.4015 29.0506 14.1693L29.69 10.3735L41.5193 5.05944C41.6472 4.99342 41.775 4.96042 41.9029 4.96042C42.0521 4.96042 42.1693 5.02643 42.2546 5.15846C42.3399 5.29048 42.3612 5.45552 42.3185 5.65355L41.6791 9.02023L32.8232 12.717C34.0807 14.1252 35.1784 15.6876 36.1162 17.4039C37.0753 19.1202 37.5549 20.7486 37.5549 22.2889C37.5549 22.971 37.4483 23.5981 37.2352 24.1702C36.681 25.7106 35.5727 26.7778 33.9102 27.3719C32.2477 27.966 30.4254 28.2631 28.4432 28.2631H27.8997V24.1372Z" fill="#744D7E"/>
<path d="M70.5103 32.0269C70.5103 24.8701 70.4947 18.1325 70.5415 11.3868C70.5415 10.9435 70.8382 10.2907 71.1895 10.0812C75.0693 7.84068 79.1599 6.34163 83.9453 6.35775C83.9453 7.46995 83.9453 8.38871 83.9453 9.30748C83.9453 14.9249 83.9219 20.5342 83.9687 26.1516C83.9765 27.425 83.633 27.9408 82.3137 28.2631C79.1131 29.053 75.9827 30.149 72.8288 31.1403C72.1653 31.3499 71.533 31.64 70.5103 32.0269Z" fill="#744D7E"/>
<path d="M55.6407 6.33C60.2622 6.35417 64.1966 7.82098 67.975 9.81971C68.4277 10.0615 68.8805 10.8191 68.8883 11.3349C68.9508 18.0806 68.9274 24.8263 68.9274 31.9105C68.1077 31.6364 67.4832 31.4108 66.8508 31.2174C63.5097 30.1938 60.1529 29.2025 56.8273 28.1145C56.3589 27.9614 55.7032 27.3327 55.6954 26.9217C55.6173 20.1196 55.6407 13.3175 55.6407 6.33Z" fill="#744D7E"/>
<path d="M54.0627 9.80195C54.0627 16.5315 54.0627 22.9226 54.0627 29.0316C58.8169 30.3856 63.329 31.667 68.2471 33.0694C66.5063 34.9069 65.3041 35.4711 63.2666 34.778C60.1596 33.7222 56.8809 33.1258 53.6412 32.5858C52.0955 32.3279 51.4241 31.9491 51.4632 30.1599C51.5881 24.881 51.5881 19.5941 51.471 14.3071C51.4241 12.3245 52.1033 11.0028 54.0627 9.80195Z" fill="#744D7E"/>
<path d="M71.6519 33.4055C75.5239 31.4874 79.4896 30.2946 83.6114 29.7707C85.2273 29.5693 85.6333 28.9809 85.6099 27.4013C85.5318 21.7194 85.5786 16.0295 85.5786 10.1059C87.1868 10.936 88.0064 11.9031 87.983 13.6923C87.9128 19.1807 87.905 24.6772 87.9986 30.1657C88.0299 31.7775 87.5303 32.2933 85.9846 32.5512C82.6746 33.0993 79.3256 33.7037 76.1484 34.7756C74.1656 35.4526 72.9946 34.9449 71.6519 33.4055Z" fill="#744D7E"/>
<path d="M67.5763 36.0504C69.6685 34.1081 69.7465 34.1081 72.0026 36.0504C70.4413 36.0504 69.0986 36.0504 67.5763 36.0504Z" fill="#744D7E"/>
</svg>
