<svg width="39" height="17" viewBox="0 0 39 17" fill="none" xmlns="http://www.w3.org/2000/svg">
<path d="M3.958 16.118C3.062 16.118 2.31067 15.9593 1.704 15.642C1.09733 15.3247 0.649333 14.8907 0.36 14.34C0.08 13.7893 -0.0366667 13.1733 0.01 12.492C0.103333 11.428 0.523333 10.5553 1.27 9.874C2.01667 9.18333 3.10867 8.66067 4.546 8.306C4.20067 8.194 4 8.13333 3.944 8.124C3.40267 7.956 2.978 7.83 2.67 7.746C2.37133 7.662 2.138 7.62 1.97 7.62C1.78333 7.62 1.62467 7.65267 1.494 7.718C1.36333 7.78333 1.26067 7.858 1.186 7.942C1.11133 8.01667 0.994667 8.14733 0.836 8.334C0.78 8.39933 0.705333 8.432 0.612 8.432C0.518667 8.432 0.439333 8.39933 0.374 8.334C0.318 8.25933 0.308667 8.166 0.346 8.054C0.672667 6.69133 1.33067 6.01 2.32 6.01C2.628 6.01 2.95 6.066 3.286 6.178C3.622 6.29 4.07933 6.46733 4.658 6.71C5.19933 6.94333 5.66133 7.12533 6.044 7.256C6.436 7.38667 6.81867 7.466 7.192 7.494C7.31333 7.50333 7.374 7.564 7.374 7.676C7.374 7.704 7.36 7.788 7.332 7.928L7.024 9.104L6.296 9.23C6.31467 9.63133 6.43133 9.902 6.646 10.042C6.87 10.1727 7.262 10.238 7.822 10.238H8.158L8.256 11.106L8.158 11.988H7.976C7.43467 11.988 6.996 11.918 6.66 11.778C6.324 11.6287 6.06267 11.3673 5.876 10.994C5.68933 10.6113 5.58667 10.07 5.568 9.37C4.54133 9.61267 3.664 9.916 2.936 10.28C2.21733 10.644 1.68067 11.0267 1.326 11.428C0.971333 11.82 0.794 12.1933 0.794 12.548C0.794 12.884 0.929333 13.1873 1.2 13.458C1.47067 13.738 1.84867 13.9527 2.334 14.102C2.81933 14.2607 3.37 14.34 3.986 14.34C5.09667 14.34 6.20267 14.1813 7.304 13.864C7.332 13.8547 7.374 13.85 7.43 13.85C7.56067 13.85 7.626 13.92 7.626 14.06C7.626 14.1627 7.60267 14.2653 7.556 14.368C7.50933 14.4987 7.43467 14.6433 7.332 14.802C7.23867 14.97 7.14533 15.1007 7.052 15.194C6.84667 15.4367 6.44067 15.6513 5.834 15.838C5.23667 16.0247 4.61133 16.118 3.958 16.118ZM3.146 12.282C3.09933 12.2353 3.076 12.198 3.076 12.17C3.076 12.142 3.09933 12.1047 3.146 12.058L3.902 11.288C3.94867 11.2413 3.986 11.218 4.014 11.218C4.05133 11.218 4.084 11.2413 4.112 11.288L4.896 12.058C4.94267 12.1047 4.966 12.142 4.966 12.17C4.966 12.1793 4.94267 12.2167 4.896 12.282L4.126 13.052C4.098 13.0893 4.06533 13.108 4.028 13.108C4 13.108 3.96733 13.0893 3.93 13.052L3.146 12.282Z" fill="#744D7E"/>
<path d="M8.03364 10.238H8.13164C8.57031 10.238 8.92497 10.182 9.19564 10.07C9.46631 9.958 9.69964 9.762 9.89564 9.482C10.101 9.19267 10.283 8.77733 10.4416 8.236C10.479 8.14267 10.5256 8.07267 10.5816 8.026C10.647 7.97 10.7123 7.942 10.7776 7.942C10.8616 7.942 10.9316 7.97467 10.9876 8.04C11.053 8.10533 11.0856 8.194 11.0856 8.306C11.0763 8.586 11.0483 8.86133 11.0016 9.132C10.9643 9.40267 10.9223 9.608 10.8756 9.748C10.9596 9.89733 11.1323 10.0187 11.3936 10.112C11.655 10.196 11.9163 10.238 12.1776 10.238H12.3176L12.4156 11.106L12.3176 11.988H12.1776C11.7296 11.988 11.3376 11.8807 11.0016 11.666C10.675 11.442 10.465 11.1667 10.3716 10.84C10.1476 11.1853 9.84431 11.4653 9.46164 11.68C9.07897 11.8853 8.63564 11.988 8.13164 11.988H8.03364V10.238ZM8.56564 6.024C8.52831 5.98667 8.50964 5.94933 8.50964 5.912C8.50964 5.87467 8.52831 5.83733 8.56564 5.8L9.33564 5.03C9.38231 4.98333 9.41964 4.96 9.44764 4.96C9.46631 4.96 9.49897 4.98333 9.54564 5.03L10.3156 5.8C10.3623 5.83733 10.3856 5.87467 10.3856 5.912C10.3856 5.94 10.3623 5.97733 10.3156 6.024L9.55964 6.794C9.52231 6.83133 9.48964 6.85 9.46164 6.85C9.42431 6.85 9.38697 6.83133 9.34964 6.794L8.56564 6.024Z" fill="#744D7E"/>
<path d="M13.2522 2.898C13.1776 2.898 13.0796 2.87467 12.9583 2.828C12.8369 2.772 12.7296 2.716 12.6362 2.66C12.5896 2.632 12.5662 2.604 12.5662 2.576C12.5662 2.53867 12.6036 2.51067 12.6783 2.492L12.9583 2.422C13.3223 2.32867 13.6349 2.24 13.8962 2.156C14.1576 2.072 14.4143 1.96 14.6663 1.82L14.5262 1.834C14.3116 1.834 14.1109 1.778 13.9242 1.666C13.7936 1.59133 13.6909 1.498 13.6163 1.386C13.5509 1.26467 13.5183 1.13867 13.5183 1.008C13.5183 0.914666 13.5509 0.793333 13.6163 0.644C13.7096 0.448 13.8356 0.294 13.9943 0.182C14.1529 0.0606667 14.3162 0 14.4843 0C14.5682 0 14.6569 0.0233333 14.7502 0.0699999C14.9183 0.154 15.0396 0.284667 15.1143 0.462C15.1982 0.63 15.2402 0.821333 15.2402 1.036C15.2402 1.21333 15.2122 1.386 15.1562 1.554C15.1003 1.722 15.0256 1.86667 14.9323 1.988C14.7362 2.22133 14.4609 2.42667 14.1062 2.604C13.7516 2.78133 13.4669 2.87933 13.2522 2.898ZM13.9102 0.658C13.8916 0.714 13.8822 0.756 13.8822 0.784C13.8822 0.942667 13.9803 1.07333 14.1763 1.176C14.3816 1.29733 14.5916 1.36733 14.8062 1.386C14.8249 1.20867 14.8016 1.04533 14.7362 0.896C14.6709 0.737333 14.5822 0.625333 14.4703 0.559999C14.3956 0.522667 14.3162 0.504 14.2323 0.504C14.1016 0.504 13.9942 0.555333 13.9102 0.658Z" fill="#744D7E"/>
<path d="M12.2172 10.238H12.4972C13.1599 10.238 13.7852 10.1773 14.3732 10.056C14.9706 9.93467 15.3952 9.72 15.6472 9.412C15.5446 8.97333 15.1946 8.42733 14.5972 7.774C14.0092 7.12067 13.3839 6.53267 12.7212 6.01L13.0012 4.4L18.1812 2.146C18.2372 2.118 18.2932 2.104 18.3492 2.104C18.4146 2.104 18.4659 2.132 18.5032 2.188C18.5406 2.244 18.5499 2.314 18.5312 2.398L18.2512 3.826L14.3732 5.394C14.9239 5.99133 15.4046 6.654 15.8152 7.382C16.2352 8.11 16.4452 8.80067 16.4452 9.454C16.4452 9.74333 16.3986 10.0093 16.3052 10.252C16.0626 10.9053 15.5772 11.358 14.8492 11.61C14.1212 11.862 13.3232 11.988 12.4552 11.988H12.2172V10.238Z" fill="#744D7E"/>
<path d="M30.8764 13.5844C30.8764 10.5489 30.8695 7.69104 30.8901 4.8298C30.8901 4.64179 31.02 4.36489 31.1738 4.27601C32.8728 3.32569 34.664 2.68985 36.7595 2.69669C36.7595 3.16844 36.7595 3.55814 36.7595 3.94784C36.7595 6.3305 36.7493 8.70974 36.7698 11.0924C36.7732 11.6325 36.6228 11.8513 36.0451 11.988C34.6435 12.323 33.2727 12.788 31.8917 13.2084C31.6011 13.2973 31.3242 13.4204 30.8764 13.5844Z" fill="#744D7E"/>
<path d="M24.365 2.68492C26.3887 2.69517 28.1116 3.31733 29.7662 4.16511C29.9644 4.26766 30.1627 4.58899 30.1661 4.80777C30.1935 7.66901 30.1832 10.5303 30.1832 13.5351C29.8243 13.4188 29.5508 13.3231 29.2739 13.2411C27.8108 12.8069 26.3409 12.3865 24.8846 11.925C24.6795 11.86 24.3924 11.5934 24.3889 11.4191C24.3548 8.53388 24.365 5.64871 24.365 2.68492Z" fill="#744D7E"/>
<path d="M23.674 4.15757C23.674 7.01198 23.674 9.72281 23.674 12.314C25.7558 12.8883 27.7317 13.4318 29.8853 14.0266C29.123 14.806 28.5966 15.0453 27.7043 14.7513C26.3438 14.3035 24.9081 14.0506 23.4894 13.8215C22.8125 13.7121 22.5186 13.5515 22.5357 12.7926C22.5904 10.5535 22.5904 8.31099 22.5391 6.06849C22.5186 5.22755 22.816 4.66692 23.674 4.15757Z" fill="#744D7E"/>
<path d="M31.3763 14.1692C33.0718 13.3556 34.8084 12.8497 36.6133 12.6275C37.3209 12.542 37.4987 12.2925 37.4884 11.6225C37.4543 9.21246 37.4748 6.79904 37.4748 4.28648C38.179 4.63858 38.5379 5.04879 38.5277 5.80769C38.4969 8.13565 38.4935 10.467 38.5345 12.795C38.5482 13.4787 38.3294 13.6975 37.6525 13.8069C36.2031 14.0393 34.7366 14.2957 33.3453 14.7504C32.477 15.0375 31.9642 14.8221 31.3763 14.1692Z" fill="#744D7E"/>
<path d="M29.5916 15.2911C30.5077 14.4672 30.5419 14.4672 31.5299 15.2911C30.8462 15.2911 30.2582 15.2911 29.5916 15.2911Z" fill="#744D7E"/>
</svg>
