<svg width="28" height="23" viewBox="0 0 28 23" fill="none" xmlns="http://www.w3.org/2000/svg">
<path fill-rule="evenodd" clip-rule="evenodd" d="M3.20202 0C6.74356 0.017947 9.75865 1.10673 12.6541 2.59035C13.0011 2.76982 13.348 3.33216 13.354 3.71503C13.3915 7.64046 13.3886 11.5659 13.3856 15.6124V15.6125C13.3848 16.7276 13.3839 17.8519 13.3839 18.9879C13.1674 18.9178 12.9686 18.8519 12.7813 18.7899L12.7807 18.7897L12.7806 18.7897C12.4247 18.6717 12.11 18.5675 11.7926 18.4734C11.1317 18.2773 10.47 18.0828 9.80818 17.8882L9.80772 17.8881L9.80696 17.8879L9.80684 17.8879C7.90493 17.3288 6.00155 16.7693 4.11133 16.1702C3.75239 16.0566 3.24988 15.59 3.24389 15.2849C3.19533 11.1863 3.19802 7.08783 3.20075 2.91573V2.91572V2.91572V2.91566V2.91551V2.91537V2.91523C3.20138 1.94775 3.20202 0.976312 3.20202 0ZM14.5976 19.0716C14.5976 17.9991 14.5971 16.9393 14.5967 15.8895C14.5948 11.7396 14.5929 7.74716 14.6216 3.75088C14.6216 3.42185 14.8489 2.93728 15.1181 2.78174C18.0913 1.11866 21.2261 0.00594183 24.8932 0.0179065V2.20744C24.8932 3.25002 24.8921 4.29223 24.891 5.33424C24.8876 8.45967 24.8843 11.5834 24.9112 14.7105C24.9172 15.6557 24.6539 16.0386 23.6429 16.2779C21.8146 16.7149 20.0161 17.2782 18.2178 17.8415L18.2175 17.8416C17.6035 18.034 16.9895 18.2263 16.3744 18.4136C16.0649 18.5082 15.7643 18.6251 15.3997 18.7667L15.3996 18.7668C15.1652 18.8579 14.9043 18.9593 14.5976 19.0716ZM1.99335 16.8463V2.57247C0.491781 3.46383 -0.0286816 4.44494 0.00721236 5.91659C0.0969473 9.841 0.0969473 13.7654 0.00123003 17.6838C-0.0286816 19.0119 0.485799 19.2931 1.6703 19.4845C4.15297 19.8853 6.66554 20.328 9.04651 21.1117C10.6079 21.6262 11.5292 21.2074 12.8632 19.8435C10.6232 19.2248 8.49297 18.6378 6.36842 18.0523C4.91848 17.6528 3.47117 17.254 1.99335 16.8463ZM15.4719 20.0946C18.4392 18.6709 21.4782 17.7855 24.6369 17.3966C25.8752 17.2471 26.1863 16.8103 26.1683 15.6378C26.125 12.5798 26.1319 9.51859 26.139 6.39041C26.1417 5.20431 26.1444 4.00858 26.1444 2.79973C27.3768 3.41591 28.0049 4.13379 27.987 5.46187C27.9331 9.53584 27.9271 13.6158 27.9989 17.6898C28.0229 18.8862 27.64 19.2691 26.4555 19.4605C23.919 19.8673 21.3526 20.316 18.9177 21.1116C17.3982 21.6142 16.5009 21.2373 15.4719 20.0946ZM12.3492 22.0568C13.9525 20.6151 14.0123 20.6151 15.7412 22.0568H12.3492Z" fill="#744D7E"/>
</svg>
