<svg width="24" height="24" viewBox="0 0 24 24" fill="none" xmlns="http://www.w3.org/2000/svg">
<rect width="24" height="24" fill="white"/>
<path d="M22 11.9993C22.0002 14.3656 21.0447 16.6368 19.3404 18.3214C17.636 20.0059 15.3199 20.9682 12.8933 21H12.7692C10.4118 21.0057 8.14258 20.126 6.43269 18.5435C6.35927 18.4758 6.30024 18.3947 6.25898 18.3047C6.21772 18.2147 6.19503 18.1177 6.19222 18.0192C6.18941 17.9207 6.20652 17.8226 6.24259 17.7306C6.27865 17.6385 6.33295 17.5543 6.4024 17.4827C6.47185 17.4111 6.55508 17.3535 6.64735 17.3133C6.73961 17.2731 6.83909 17.2509 6.94012 17.2482C7.04115 17.2455 7.14174 17.2622 7.23616 17.2973C7.33057 17.3325 7.41696 17.3854 7.49038 17.4532C8.59019 18.4645 9.97123 19.1374 11.461 19.3879C12.9507 19.6384 14.4832 19.4553 15.8668 18.8615C17.2505 18.2677 18.424 17.2895 19.2408 16.0491C20.0577 14.8088 20.4815 13.3612 20.4596 11.8873C20.4376 10.4134 19.9707 8.97852 19.1172 7.76185C18.2637 6.54519 17.0615 5.60071 15.6607 5.04641C14.2599 4.49211 12.7227 4.35255 11.241 4.64518C9.75935 4.9378 8.39897 5.64963 7.32981 6.69175C7.32195 6.70003 7.3136 6.70786 7.30481 6.71519L4.74904 8.9991H7.38462C7.58863 8.9991 7.78429 9.07813 7.92854 9.21879C8.0728 9.35945 8.15385 9.55023 8.15385 9.74916C8.15385 9.94808 8.0728 10.1389 7.92854 10.2795C7.78429 10.4202 7.58863 10.4992 7.38462 10.4992H2.76923C2.56522 10.4992 2.36956 10.4202 2.2253 10.2795C2.08104 10.1389 2 9.94808 2 9.74916V5.24883C2 5.0499 2.08104 4.85913 2.2253 4.71846C2.36956 4.5778 2.56522 4.49878 2.76923 4.49878C2.97324 4.49878 3.1689 4.5778 3.31316 4.71846C3.45742 4.85913 3.53846 5.0499 3.53846 5.24883V8.04278L6.25481 5.62386C7.5471 4.36868 9.1918 3.51496 10.9813 3.17046C12.7708 2.82596 14.6248 3.00614 16.3094 3.68824C17.9939 4.37034 19.4335 5.52379 20.4463 7.00297C21.4591 8.48216 21.9997 10.2208 22 11.9993Z" fill="black"/>
</svg>
