<svg width="24" height="24" viewBox="0 0 24 24" fill="none" xmlns="http://www.w3.org/2000/svg">
<rect width="24" height="24" fill="white"/>
<path d="M12.4003 7.49545V11.5708L16.0122 13.6023C16.1941 13.7048 16.3252 13.8708 16.3766 14.0638C16.428 14.2569 16.3954 14.4611 16.2862 14.6317C16.1769 14.8023 15.9998 14.9252 15.7939 14.9733C15.588 15.0215 15.3701 14.991 15.1882 14.8886L11.1883 12.6386C11.0699 12.5719 10.972 12.4776 10.904 12.3649C10.836 12.2522 10.8003 12.1249 10.8003 11.9955V7.49545C10.8003 7.29654 10.8846 7.10577 11.0346 6.96512C11.1847 6.82447 11.3881 6.74545 11.6003 6.74545C11.8125 6.74545 12.016 6.82447 12.166 6.96512C12.316 7.10577 12.4003 7.29654 12.4003 7.49545ZM21.2 5.24545C20.9879 5.24545 20.7844 5.32447 20.6344 5.46512C20.4843 5.60578 20.4 5.79654 20.4 5.99545V7.68295C19.7651 6.99295 19.1171 6.32827 18.3881 5.63639C17.054 4.38549 15.3563 3.53091 13.5071 3.17944C11.6579 2.82797 9.73921 2.99519 7.99081 3.6602C6.2424 4.32522 4.74179 5.45854 3.67648 6.91856C2.61118 8.37857 2.02841 10.1005 2.00101 11.8693C1.97361 13.6381 2.50278 15.3752 3.52241 16.8636C4.54204 18.352 6.00691 19.5257 7.73398 20.238C9.46105 20.9504 11.3737 21.1697 13.233 20.8688C15.0923 20.5678 16.8158 19.7598 18.1881 18.5458C18.2645 18.478 18.326 18.3969 18.369 18.3069C18.4119 18.2169 18.4356 18.1199 18.4386 18.0213C18.4415 17.9228 18.4238 17.8247 18.3863 17.7326C18.3488 17.6404 18.2923 17.5562 18.2201 17.4845C18.1479 17.4129 18.0613 17.3552 17.9653 17.315C17.8694 17.2747 17.7659 17.2525 17.6608 17.2497C17.5556 17.2469 17.451 17.2636 17.3527 17.2987C17.2545 17.3339 17.1646 17.3868 17.0881 17.4545C15.9442 18.4652 14.5081 19.1376 12.959 19.3876C11.4099 19.6377 9.81661 19.4543 8.37802 18.8605C6.93942 18.2667 5.71931 17.2887 4.87003 16.0486C4.02075 14.8086 3.57994 13.3615 3.60266 11.888C3.62538 10.4145 4.11062 8.97987 4.99778 7.76337C5.88494 6.54686 7.1347 5.60234 8.591 5.04775C10.0473 4.49316 11.6456 4.35308 13.1863 4.64501C14.727 4.93693 16.1419 5.64793 17.2541 6.6892C18.0681 7.4617 18.7811 8.20608 19.5001 8.99545H17.2001C16.988 8.99545 16.7845 9.07447 16.6345 9.21512C16.4844 9.35577 16.4002 9.54654 16.4002 9.74545C16.4002 9.94436 16.4844 10.1351 16.6345 10.2758C16.7845 10.4164 16.988 10.4955 17.2001 10.4955H21.2C21.4122 10.4955 21.6157 10.4164 21.7657 10.2758C21.9157 10.1351 22 9.94436 22 9.74545V5.99545C22 5.79654 21.9157 5.60578 21.7657 5.46512C21.6157 5.32447 21.4122 5.24545 21.2 5.24545Z" fill="black"/>
</svg>
