<svg width="24" height="24" viewBox="0 0 24 24" fill="none" xmlns="http://www.w3.org/2000/svg">
<rect width="24" height="24" fill="white"/>
<path d="M22 5.24926V9.74946C22 9.94839 21.919 10.1392 21.7747 10.2798C21.6304 10.4205 21.4348 10.4995 21.2308 10.4995H16.6155C16.4115 10.4995 16.2159 10.4205 16.0716 10.2798C15.9274 10.1392 15.8463 9.94839 15.8463 9.74946C15.8463 9.55054 15.9274 9.35977 16.0716 9.21911C16.2159 9.07845 16.4115 8.99943 16.6155 8.99943H19.2501L16.6934 6.71558L16.6694 6.69307C15.6002 5.65099 14.2399 4.93917 12.7583 4.64656C11.2767 4.35394 9.73946 4.49349 8.33871 5.04778C6.93796 5.60207 5.73576 6.54652 4.8823 7.76315C4.02884 8.97978 3.56195 10.4146 3.53995 11.8885C3.51796 13.3624 3.94184 14.8099 4.75864 16.0502C5.57544 17.2905 6.74895 18.2687 8.13257 18.8625C9.51619 19.4563 11.0486 19.6394 12.5383 19.3889C14.028 19.1384 15.409 18.4655 16.5088 17.4542C16.6571 17.3174 16.855 17.2437 17.059 17.2493C17.2631 17.2548 17.4565 17.3391 17.5967 17.4837C17.737 17.6283 17.8126 17.8213 17.8069 18.0203C17.8012 18.2192 17.7147 18.4078 17.5665 18.5446C15.8564 20.1259 13.5879 21.0051 11.231 21H11.1041C9.59237 20.9798 8.10885 20.5978 6.78394 19.8877C5.45904 19.1775 4.33332 18.1609 3.50572 16.9272C2.67812 15.6934 2.17399 14.2804 2.03762 12.8122C1.90126 11.344 2.13685 9.86562 2.72367 8.50699C3.3105 7.14837 4.2306 5.95109 5.40311 5.0204C6.57561 4.08971 7.96462 3.45409 9.44806 3.16941C10.9315 2.88473 12.4639 2.95971 13.9107 3.38776C15.3575 3.8158 16.6742 4.58381 17.7453 5.62428L20.4616 8.04314V5.24926C20.4616 5.05034 20.5426 4.85956 20.6869 4.71891C20.8311 4.57825 21.0268 4.49922 21.2308 4.49922C21.4348 4.49922 21.6304 4.57825 21.7747 4.71891C21.919 4.85956 22 5.05034 22 5.24926Z" fill="black"/>
</svg>
