<svg width="24" height="24" viewBox="0 0 24 24" fill="none" xmlns="http://www.w3.org/2000/svg">
<path fill-rule="evenodd" clip-rule="evenodd" d="M18.25 4.05C18.25 3.63579 18.5858 3.3 19 3.3C19.2116 3.28042 19.4218 3.35037 19.5795 3.49288C19.7373 3.6354 19.8281 3.83745 19.83 4.05V20C19.83 20.4142 19.4942 20.75 19.08 20.75C18.6658 20.75 18.33 20.4142 18.33 20V12.71C18.1037 13.3992 17.6298 13.9801 17 14.34L8.70997 19.09C8.25875 19.3571 7.74431 19.4987 7.21997 19.5C5.56312 19.5 4.21997 18.1569 4.21997 16.5V7C4.21997 5.34315 5.56312 4 7.21997 4C7.74155 3.99224 8.25581 4.1234 8.70997 4.38L17 9.14C17.5997 9.5147 18.0437 10.0936 18.25 10.77V4.05ZM7.99997 17.8L16.21 13L16.25 13.04C16.715 12.7723 17.0016 12.2766 17.0016 11.74C17.0016 11.2034 16.715 10.7077 16.25 10.44L7.99997 5.68C7.76601 5.53543 7.49488 5.46244 7.21997 5.47C6.81684 5.47265 6.43127 5.63533 6.14809 5.92226C5.8649 6.2092 5.70731 6.59687 5.70997 7V16.5C5.71256 16.9066 5.87799 17.2953 6.16928 17.5791C6.46056 17.8628 6.8534 18.018 7.25997 18.01C7.52133 18.0099 7.77753 17.9372 7.99997 17.8Z" fill="black"/>
</svg>
