<svg width="24" height="24" viewBox="0 0 24 24" fill="none" xmlns="http://www.w3.org/2000/svg">
<path fill-rule="evenodd" clip-rule="evenodd" d="M9.26137 2.55923L19.3491 8.38926C20.6365 9.13603 21.4289 10.5117 21.4289 12C21.4289 13.4882 20.6365 14.8639 19.3491 15.6107L9.26137 21.4407C7.96944 22.1866 6.37766 22.1864 5.08597 21.4401C3.79427 20.6938 2.99905 19.3149 3 17.8231V6.17691C2.99905 4.68512 3.79427 3.30621 5.08597 2.5599C6.37766 1.81359 7.96944 1.81333 9.26137 2.55923ZM8.0091 19.2701L18.0969 13.454C18.6159 13.1577 18.935 12.6046 18.9317 12.0069C18.9371 11.4051 18.6181 10.8469 18.0969 10.546L8.0091 4.72984C7.75679 4.57818 7.46862 4.49653 7.17425 4.4933C6.24442 4.4933 5.49064 5.24708 5.49064 6.17691V17.8231C5.49064 18.2696 5.66802 18.6978 5.98376 19.0136C6.2995 19.3293 6.72773 19.5067 7.17425 19.5067C7.46862 19.5034 7.75679 19.4218 8.0091 19.2701Z" fill="black"/>
</svg>
