<svg width="24" height="24" viewBox="0 0 24 24" fill="none" xmlns="http://www.w3.org/2000/svg">
<path fill-rule="evenodd" clip-rule="evenodd" d="M15.9101 4.41C16.3654 4.14387 16.8827 4.00245 17.4101 4C19.0669 4 20.4101 5.34314 20.4101 7V16.54C20.4108 17.6121 19.8393 18.6031 18.9109 19.1395C17.9826 19.6759 16.8386 19.6761 15.9101 19.14L7.66009 14.38C7.0383 14.0132 6.56963 13.4345 6.34009 12.75V20C6.34009 20.4142 6.0043 20.75 5.59009 20.75C5.17587 20.75 4.84009 20.4142 4.84009 20V4.09C4.84009 3.67578 5.17587 3.34 5.59009 3.34C6.0043 3.34 6.34009 3.67578 6.34009 4.09V10.81C6.56963 10.1255 7.0383 9.54681 7.66009 9.18L15.9101 4.41ZM17.4101 18.04C18.2401 18.0345 18.9101 17.3601 18.9101 16.53V7C18.8992 6.17775 18.2324 5.51537 17.4101 5.51C17.1458 5.51129 16.8867 5.58384 16.6601 5.72L8.41009 10.48C7.94505 10.7477 7.65842 11.2434 7.65842 11.78C7.65842 12.3166 7.94505 12.8123 8.41009 13.08L16.6601 17.83C16.8867 17.9662 17.1458 18.0387 17.4101 18.04Z" fill="black"/>
</svg>
