<svg width="24" height="24" viewBox="0 0 24 24" fill="none" xmlns="http://www.w3.org/2000/svg">
<path d="M21.2823 11.1796H19.6842V9.2499C19.6842 8.77127 19.3629 8.38327 18.9665 8.38327C18.5701 8.38327 18.2488 8.77127 18.2488 9.2499V11.1796H16.6507C16.2543 11.1796 15.933 11.5676 15.933 12.0462C15.933 12.5248 16.2543 12.9128 16.6507 12.9128H18.2488V14.8425C18.2488 15.3212 18.5701 15.7092 18.9665 15.7092C19.3629 15.7092 19.6842 15.3212 19.6842 14.8425V12.9128H21.2823C21.6787 12.9128 22 12.5248 22 12.0462C22 11.5676 21.6787 11.1796 21.2823 11.1796Z" fill="black"/>
<path d="M12.1531 3.4377L6.52632 7.96728C6.20484 8.22155 5.82927 8.358 5.44498 8.36016H3.91388C2.85687 8.36016 2 9.39483 2 10.6712V13.3288C2 14.6052 2.85687 15.6398 3.91388 15.6398H5.44498C5.82927 15.642 6.20484 15.7785 6.52632 16.0327L12.1531 20.5623C12.7454 21.0789 13.5295 21.1433 14.1742 20.7283C14.8189 20.3132 15.2117 19.4912 15.1866 18.6095V5.3905C15.2117 4.5088 14.8189 3.68675 14.1742 3.27171C13.5295 2.85668 12.7454 2.92108 12.1531 3.4377Z" fill="black"/>
</svg>
