<svg width="24" height="24" viewBox="0 0 24 24" fill="none" xmlns="http://www.w3.org/2000/svg">
<path d="M11.9973 20.255C11.7985 20.2548 11.6078 20.1757 11.4673 20.035L4.46731 13.035C4.27975 12.8421 4.20935 12.5637 4.28265 12.3048C4.35594 12.046 4.56179 11.8458 4.82265 11.7798C5.08351 11.7139 5.35975 11.7921 5.54731 11.985L11.9973 18.435L18.4473 11.985C18.6343 11.7843 18.9159 11.7018 19.1816 11.7696C19.4473 11.8375 19.6548 12.045 19.7227 12.3107C19.7906 12.5764 19.708 12.858 19.5073 13.045L12.5073 20.045C12.3702 20.1772 12.1878 20.2523 11.9973 20.255Z" fill="black"/>
<path d="M11.9973 20.245C11.5853 20.2396 11.2527 19.907 11.2473 19.495V4.495C11.2473 4.22705 11.3903 3.97946 11.6223 3.84548C11.8544 3.71151 12.1403 3.71151 12.3723 3.84548C12.6044 3.97946 12.7473 4.22705 12.7473 4.495V19.495C12.7419 19.907 12.4093 20.2396 11.9973 20.245Z" fill="black"/>
<path d="M11.9973 20.255C11.7985 20.2548 11.6078 20.1757 11.4673 20.035L4.46731 13.035C4.27975 12.8421 4.20935 12.5637 4.28265 12.3048C4.35594 12.046 4.56179 11.8458 4.82265 11.7798C5.08351 11.7139 5.35975 11.7921 5.54731 11.985L11.9973 18.435L18.4473 11.985C18.6343 11.7843 18.9159 11.7018 19.1816 11.7696C19.4473 11.8375 19.6548 12.045 19.7227 12.3107C19.7906 12.5764 19.708 12.858 19.5073 13.045L12.5073 20.045C12.3702 20.1772 12.1878 20.2523 11.9973 20.255Z" fill="black"/>
<path d="M11.9973 20.245C11.5853 20.2396 11.2527 19.907 11.2473 19.495V4.495C11.2473 4.22705 11.3903 3.97946 11.6223 3.84548C11.8544 3.71151 12.1403 3.71151 12.3723 3.84548C12.6044 3.97946 12.7473 4.22705 12.7473 4.495V19.495C12.7419 19.907 12.4093 20.2396 11.9973 20.245Z" fill="black"/>
</svg>
