<svg width="24" height="24" viewBox="0 0 24 24" fill="none" xmlns="http://www.w3.org/2000/svg">
<path d="M11.2193 19.2793C11.3626 19.4146 11.5523 19.4897 11.7493 19.4893C11.9456 19.491 12.1339 19.4114 12.2693 19.2693C12.4123 19.1301 12.4929 18.9389 12.4929 18.7393C12.4929 18.5398 12.4123 18.3486 12.2693 18.2093L6.56928 12.5093H19.7896C20.2038 12.5093 20.5396 12.1735 20.5396 11.7593C20.5396 11.3451 20.2038 11.0093 19.7896 11.0093H6.56709L12.2793 5.27934C12.4223 5.14005 12.5029 4.94893 12.5029 4.74934C12.5029 4.54975 12.4223 4.35863 12.2793 4.21934C11.9865 3.92689 11.5122 3.92689 11.2193 4.21934L4.21934 11.2193C3.92689 11.5122 3.92689 11.9865 4.21934 12.2793L11.2193 19.2793Z" fill="black"/>
</svg>
