<svg width="24" height="24" viewBox="0 0 24 24" fill="none" xmlns="http://www.w3.org/2000/svg">
<path d="M16.8587 17.9287C17.002 18.064 17.1917 18.1391 17.3887 18.1387C17.5864 18.1423 17.7772 18.0667 17.9187 17.9287C18.0623 17.7877 18.1431 17.5949 18.1431 17.3937C18.1431 17.1925 18.0623 16.9997 17.9187 16.8587L8.56855 7.50854H16.7087C17.1229 7.50854 17.4587 7.17276 17.4587 6.75854C17.4587 6.34433 17.1229 6.00854 16.7087 6.00854H6.86283C6.76499 5.99365 6.66361 5.99802 6.56444 6.02334C6.29871 6.09121 6.09121 6.29871 6.02334 6.56444C5.97809 6.74165 5.99974 6.9259 6.0787 7.08445V16.6485C6.07275 17.046 6.38181 17.3771 6.7787 17.3985L6.7687 17.3885C7.18291 17.3885 7.5187 17.0528 7.5187 16.6385V8.5799L16.8587 17.9287Z" fill="black"/>
</svg>
