<svg width="24" height="24" viewBox="0 0 24 24" fill="none" xmlns="http://www.w3.org/2000/svg">
<path d="M20.32 11.2132L13.32 4.21316C13.1271 4.0256 12.8487 3.9552 12.5898 4.0285C12.3309 4.10179 12.1308 4.30764 12.0648 4.5685C11.9989 4.82936 12.0771 5.1056 12.27 5.29316L17.98 10.9932H4.75C4.33579 10.9932 4 11.3289 4 11.7432C4 12.1574 4.33579 12.4932 4.75 12.4932H17.97L12.27 18.1932C12.1271 18.3324 12.0464 18.5236 12.0464 18.7232C12.0464 18.9227 12.1271 19.1139 12.27 19.2532C12.4078 19.3978 12.6002 19.4777 12.8 19.4732C12.9991 19.4741 13.1901 19.3948 13.33 19.2532L20.33 12.2532C20.6225 11.9603 20.6225 11.486 20.33 11.1932L20.32 11.2132Z" fill="black"/>
</svg>
