<svg width="24" height="24" viewBox="0 0 24 24" fill="none" xmlns="http://www.w3.org/2000/svg">
<path d="M4.22438 12.0057C4.35773 12.1461 4.54083 12.2287 4.73438 12.2357C4.94185 12.2395 5.1414 12.1561 5.28438 12.0057L10.9844 6.30568V19.5258C10.9898 19.9377 11.3224 20.2704 11.7344 20.2758C12.1463 20.2704 12.479 19.9377 12.4844 19.5258V6.30567L18.1844 12.0057C18.3755 12.2022 18.657 12.2818 18.9227 12.2145C19.1884 12.1472 19.3981 11.9433 19.4727 11.6795C19.5473 11.4157 19.4755 11.1322 19.2844 10.9357L12.2844 3.93567C11.9873 3.65377 11.5215 3.65377 11.2244 3.93567L4.22438 10.9357C4.08085 11.0767 4 11.2695 4 11.4707C4 11.6719 4.08085 11.8647 4.22438 12.0057Z" fill="black"/>
</svg>
