<svg width="24" height="24" viewBox="0 0 24 24" fill="none" xmlns="http://www.w3.org/2000/svg">
<path d="M22.4707 11.1532L18.2495 14.7491L19.5355 20.1269C19.6065 20.4188 19.5882 20.7249 19.483 21.0066C19.3778 21.2883 19.1904 21.5329 18.9445 21.7095C18.6986 21.8861 18.4052 21.9867 18.1013 21.9988C17.7974 22.0108 17.4968 21.9337 17.2373 21.7771L12.5002 18.8989L7.76024 21.7771C7.50081 21.9328 7.20052 22.0092 6.89719 21.9967C6.59385 21.9842 6.30105 21.8834 6.05563 21.707C5.81022 21.5305 5.62317 21.2863 5.51804 21.0052C5.41291 20.724 5.3944 20.4184 5.46485 20.1269L6.7556 14.7491L2.53439 11.1532C2.30485 10.9573 2.13884 10.6991 2.0571 10.4106C1.97536 10.1222 1.9815 9.81634 2.07476 9.53133C2.16803 9.24631 2.34428 8.99474 2.58151 8.80802C2.81874 8.62131 3.10643 8.50773 3.40865 8.48147L8.94312 8.04065L11.0781 2.93984C11.1937 2.66185 11.3904 2.42406 11.6432 2.25671C11.896 2.08936 12.1935 2 12.4978 2C12.8022 2 13.0997 2.08936 13.3525 2.25671C13.6053 2.42406 13.802 2.66185 13.9176 2.93984L16.0516 8.04065L21.5861 8.48147C21.8889 8.50675 22.1775 8.6197 22.4155 8.80615C22.6536 8.99261 22.8307 9.24429 22.9245 9.52965C23.0184 9.81501 23.0248 10.1214 22.9431 10.4103C22.8614 10.6993 22.6951 10.958 22.465 11.1541L22.4707 11.1532Z" fill="#E1BD09"/>
</svg>
