<svg width="24" height="24" viewBox="0 0 24 24" fill="none" xmlns="http://www.w3.org/2000/svg">
<path fill-rule="evenodd" clip-rule="evenodd" d="M9.93792 3.7272C10.2588 2.68919 11.2248 1.9863 12.3111 2.0002C13.4037 1.98923 14.3716 2.70265 14.6844 3.74948L15.4197 5.97786C15.7499 7.00918 16.7101 7.70787 17.793 7.70486H20.1105C21.2188 7.66286 22.2219 8.35737 22.5727 9.40961C22.9234 10.4619 22.5377 11.6193 21.6258 12.2508L19.7205 13.6435C18.8423 14.2743 18.4729 15.4006 18.8069 16.429L19.5422 18.6573C19.7949 19.4288 19.6585 20.2748 19.176 20.9276C18.6936 21.5804 17.9249 21.9593 17.1133 21.9442C16.587 21.9402 16.0757 21.7685 15.6537 21.454L13.8264 20.0612C12.9501 19.4221 11.7613 19.4221 10.885 20.0612L8.96858 21.454C8.54153 21.7976 8.01245 21.9896 7.46442 21.9999C6.64691 22.0067 5.87745 21.6145 5.40269 20.9489C4.92793 20.2834 4.80751 19.4281 5.08005 18.6573L5.81542 16.429C6.16971 15.4037 5.8179 14.2671 4.94635 13.6212L3.04109 12.2285C2.15794 11.5949 1.7864 10.4626 2.12247 9.42891C2.45854 8.39526 3.42492 7.69795 4.51182 7.70486H6.82933C7.91826 7.70481 8.88027 6.99572 9.20256 5.95558L9.93792 3.7272ZM12.9017 4.30658C12.8332 4.03977 12.5863 3.85809 12.3111 3.87204C12.0224 3.86215 11.7705 4.06654 11.7206 4.35114L10.9853 6.57952C10.4008 8.3804 8.72267 9.59967 6.82933 9.59898H4.46725C4.2047 9.60654 3.975 9.77771 3.89269 10.0271C3.81038 10.2766 3.89308 10.5508 4.09957 10.7132L6.00483 12.1059C7.54161 13.2175 8.18538 15.1938 7.59812 16.9972L6.86276 19.2256C6.79054 19.4086 6.82018 19.6161 6.94075 19.7715C7.06579 19.9515 7.26773 20.0628 7.4867 20.0724C7.62043 20.0684 7.74933 20.0215 7.85439 19.9387L9.73737 18.5459C11.2721 17.4309 13.3502 17.4309 14.8849 18.5459L16.7456 19.8718C16.8507 19.9546 16.9796 20.0015 17.1133 20.0055C17.3223 19.9919 17.5144 19.8857 17.637 19.7158C17.7575 19.5604 17.7872 19.3529 17.715 19.1699L16.9796 16.9415C16.3923 15.1381 17.0361 13.1617 18.5729 12.0502L20.4782 10.6686C20.6846 10.5063 20.7673 10.232 20.685 9.98257C20.6027 9.73314 20.373 9.56197 20.1105 9.55441H17.793C15.8996 9.5551 14.2215 8.33584 13.637 6.53496L12.9017 4.30658Z" fill="#787878"/>
</svg>
