<svg width="24" height="24" viewBox="0 0 24 24" fill="none" xmlns="http://www.w3.org/2000/svg">
<path fill-rule="evenodd" clip-rule="evenodd" d="M13.381 2.54256L20.2863 7.34946C21.3599 8.09744 21.9991 9.31651 22 10.6173V17.7427C21.9973 18.8745 21.5413 19.9588 20.7321 20.7572C19.923 21.5556 18.8271 22.0026 17.6855 22H6.31452C5.17291 22.0026 4.07699 21.5556 3.26786 20.7572C2.45874 19.9588 2.00267 18.8745 2 17.7427V10.6173C2.00086 9.31651 2.64015 8.09744 3.71371 7.34946L10.619 2.54256C11.3951 1.81915 12.6049 1.81915 13.381 2.54256ZM19.6629 19.6972C20.1885 19.18 20.4852 18.4769 20.4879 17.7427V10.6173C20.4738 9.82026 20.0768 9.07771 19.4194 8.61864L12.5141 3.81174L12.4032 3.73179C12.297 3.62436 12.1517 3.56382 12 3.56382C11.8483 3.56382 11.703 3.62436 11.5968 3.73179L11.4859 3.81174L4.58065 8.61864C3.9232 9.07771 3.52622 9.82026 3.5121 10.6173V17.7427C3.51477 18.4769 3.81152 19.18 4.33708 19.6972C4.86263 20.2145 5.57394 20.5036 6.31452 20.501H17.6855C18.4261 20.5036 19.1374 20.2145 19.6629 19.6972Z" fill="black"/>
<path d="M18.1189 11.0071L12.5343 14.8746C12.3689 15.0385 12.1419 15.1264 11.9083 15.1169C11.6747 15.1074 11.4557 15.0014 11.3044 14.8246L5.88104 11.0071C5.66319 10.8203 5.35721 10.7725 5.09194 10.8837C4.82667 10.9949 4.64819 11.2459 4.63167 11.531C4.61514 11.8161 4.76344 12.0857 5.01411 12.2263L10.3568 16.0039C10.7949 16.4082 11.3712 16.6331 11.9698 16.6335C12.5327 16.6193 13.0694 16.3944 13.4718 16.0039L18.9859 12.1863C19.3029 11.9537 19.3863 11.5186 19.1774 11.187C18.9331 10.8509 18.4622 10.7709 18.1189 11.0071Z" fill="black"/>
</svg>
