<svg width="24" height="24" viewBox="0 0 24 24" fill="none" xmlns="http://www.w3.org/2000/svg">
<path d="M2 5.25125C2 4.00792 3.11929 3 4.5 3H7.93333C9.31404 3 10.4333 4.00792 10.4333 5.25125V8.34297C10.4333 9.5863 9.31405 10.5942 7.93333 10.5942H4.5C3.11929 10.5942 2 9.5863 2 8.34297V5.25125Z" fill="black"/>
<path d="M13.5667 5.25125C13.5667 4.00792 14.686 3 16.0667 3H19.5C20.8807 3 22 4.00792 22 5.25125V8.34297C22 9.5863 20.8807 10.5942 19.5 10.5942H16.0667C14.686 10.5942 13.5667 9.5863 13.5667 8.34297V5.25125Z" fill="black"/>
<path d="M2 15.657C2 14.4137 3.11929 13.4058 4.5 13.4058H7.93333C9.31404 13.4058 10.4333 14.4137 10.4333 15.657V18.7487C10.4333 19.9921 9.31405 21 7.93333 21H4.5C3.11929 21 2 19.9921 2 18.7487V15.657Z" fill="black"/>
<path d="M13.5667 15.657C13.5667 14.4137 14.686 13.4058 16.0667 13.4058H19.5C20.8807 13.4058 22 14.4137 22 15.657V18.7487C22 19.9921 20.8807 21 19.5 21H16.0667C14.686 21 13.5667 19.9921 13.5667 18.7487V15.657Z" fill="black"/>
</svg>
