<svg width="24" height="24" viewBox="0 0 24 24" fill="none" xmlns="http://www.w3.org/2000/svg">
<path fill-rule="evenodd" clip-rule="evenodd" d="M4.50002 3H7.93334C8.5983 2.99999 9.23588 3.23842 9.70504 3.66254C10.1742 4.08666 10.4363 4.66153 10.4333 5.26V8.34C10.4333 9.58264 9.31404 10.59 7.93334 10.59H4.50002C3.11931 10.59 2.00002 9.58264 2.00002 8.34V5.26C1.99707 4.66153 2.25916 4.08666 2.72832 3.66254C3.19747 3.23842 3.83505 2.99999 4.50002 3ZM7.93334 9.08C8.39107 9.07461 8.76068 8.74196 8.76667 8.33V5.26C8.76667 4.84579 8.39357 4.51 7.93334 4.51H4.50002C4.03978 4.51 3.66669 4.84579 3.66669 5.26V8.33C3.67267 8.74196 4.04228 9.07461 4.50002 9.08H7.93334Z" fill="black"/>
<path fill-rule="evenodd" clip-rule="evenodd" d="M16.0667 3H19.5C20.165 2.99999 20.8025 3.23842 21.2717 3.66254C21.7408 4.08666 22.0029 4.66153 22 5.26V8.34C22 9.58264 20.8807 10.59 19.5 10.59H16.0667C14.686 10.59 13.5667 9.58264 13.5667 8.34V5.25C13.5667 4.00736 14.686 3 16.0667 3ZM19.5 9.08C19.9577 9.07461 20.3273 8.74196 20.3333 8.33V5.26C20.3333 4.84579 19.9602 4.51 19.5 4.51H16.0667C15.6064 4.51 15.2333 4.84579 15.2333 5.26V8.33C15.2393 8.74196 15.6089 9.07461 16.0667 9.08H19.5Z" fill="black"/>
<path fill-rule="evenodd" clip-rule="evenodd" d="M4.50002 13.41H7.93334C9.31404 13.41 10.4333 14.4174 10.4333 15.66V18.75C10.4333 19.9926 9.31404 21 7.93334 21H4.50002C3.83505 21 3.19747 20.7616 2.72832 20.3375C2.25916 19.9133 1.99707 19.3385 2.00002 18.74V15.66C2.00002 14.4174 3.11931 13.41 4.50002 13.41ZM7.93334 19.49C8.39357 19.49 8.76667 19.1542 8.76667 18.74V15.66C8.76068 15.248 8.39107 14.9154 7.93334 14.91H4.50002C4.04228 14.9154 3.67267 15.248 3.66669 15.66V18.74C3.66669 19.1542 4.03978 19.49 4.50002 19.49H7.93334Z" fill="black"/>
<path fill-rule="evenodd" clip-rule="evenodd" d="M16.0666 13.41H19.5C20.8807 13.41 22 14.4174 22 15.66V18.74C22.0029 19.3385 21.7408 19.9133 21.2717 20.3375C20.8025 20.7616 20.1649 21 19.5 21H16.0666C15.4017 21 14.7641 20.7616 14.2949 20.3375C13.8258 19.9133 13.5637 19.3385 13.5666 18.74V15.66C13.5666 14.4174 14.6859 13.41 16.0666 13.41ZM19.5 19.49C19.9602 19.49 20.3333 19.1542 20.3333 18.74V15.66C20.3273 15.248 19.9577 14.9154 19.5 14.91H16.0666C15.6089 14.9154 15.2393 15.248 15.2333 15.66V18.74C15.2333 19.1542 15.6064 19.49 16.0666 19.49H19.5Z" fill="black"/>
</svg>
