<svg width="24" height="24" viewBox="0 0 24 24" fill="none" xmlns="http://www.w3.org/2000/svg">
<path fill-rule="evenodd" clip-rule="evenodd" d="M4.5 3H19.5C20.8807 3 22 3.89543 22 5V8C22 9.10457 20.8807 10 19.5 10H4.5C3.11929 10 2 9.10457 2 8V5C2 3.89543 3.11929 3 4.5 3ZM19.5 8.5C19.8452 8.5 20.125 8.27614 20.125 8V5C20.125 4.72386 19.8452 4.5 19.5 4.5H4.5C4.15482 4.5 3.875 4.72386 3.875 5V8C3.875 8.27614 4.15482 8.5 4.5 8.5H19.5Z" fill="black"/>
<path fill-rule="evenodd" clip-rule="evenodd" d="M4.5 13H19.5C20.8807 13 22 13.8954 22 15V18C22 19.1046 20.8807 20 19.5 20H4.5C3.11929 20 2 19.1046 2 18V15C2 13.8954 3.11929 13 4.5 13ZM19.5 18.5C19.8452 18.5 20.125 18.2761 20.125 18V15C20.125 14.7239 19.8452 14.5 19.5 14.5H4.5C4.15482 14.5 3.875 14.7239 3.875 15V18C3.875 18.2761 4.15482 18.5 4.5 18.5H19.5Z" fill="black"/>
</svg>
