<svg width="24" height="24" viewBox="0 0 24 24" fill="none" xmlns="http://www.w3.org/2000/svg">
<path fill-rule="evenodd" clip-rule="evenodd" d="M7.75082 2.00482H15.8047C16.751 1.95646 17.6783 2.27356 18.382 2.88614C19.0857 3.49873 19.5079 4.35643 19.5555 5.26996V20.8849C19.5568 21.1976 19.4215 21.4964 19.1828 21.7078C18.9441 21.9192 18.6241 22.0236 18.3014 21.9955C18.0187 21.9955 17.7437 21.9057 17.519 21.7401L12.5371 18.0862C12.0667 17.7456 11.4198 17.7456 10.9494 18.0862L6.01348 21.7401C5.79507 21.9012 5.52899 21.9907 5.25412 21.9955C4.93146 22.0236 4.61147 21.9192 4.37274 21.7078C4.13402 21.4964 3.99869 21.1976 4.00001 20.8849V5.26996C4.04759 4.35643 4.46983 3.49873 5.17353 2.88614C5.87723 2.27356 6.80455 1.95646 7.75082 2.00482ZM13.6072 16.7646L17.8067 19.8743L17.7837 5.26996C17.6748 4.30171 16.7875 3.59288 15.7817 3.67071H7.72781C6.72205 3.59288 5.83473 4.30171 5.72584 5.26996V19.8743L9.92537 16.7646C11.0128 15.9648 12.5197 15.9648 13.6072 16.7646Z" fill="black"/>
</svg>
