<svg width="24" height="24" viewBox="0 0 24 24" fill="none" xmlns="http://www.w3.org/2000/svg">
<path d="M18.0778 21.7332L13.3111 18.0827C12.858 17.7386 12.2308 17.7386 11.7778 18.0827L6.96667 21.7332C6.61583 22.0148 6.13752 22.0789 5.72475 21.8996C5.31198 21.7203 5.03285 21.3271 5 20.8788V5.27806C5.04309 4.36339 5.44961 3.50363 6.12951 2.88923C6.80941 2.27483 7.70655 1.95651 8.62222 2.00479H16.4C17.3212 1.96275 18.2208 2.29134 18.8974 2.91699C19.5741 3.54264 19.9712 4.41311 20 5.33354V20.8788C19.9568 21.311 19.6847 21.6869 19.2874 21.8635C18.89 22.0401 18.4283 21.9904 18.0778 21.7332Z" fill="black"/>
</svg>
