<svg width="24" height="24" viewBox="0 0 24 24" fill="none" xmlns="http://www.w3.org/2000/svg">
<path d="M9.39 5.43017C9.35063 5.38169 9.32328 5.32242 9.31069 5.25832C9.2981 5.19422 9.30072 5.12752 9.31827 5.06491C9.33582 5.0023 9.3677 4.94597 9.41071 4.90156C9.45371 4.85715 9.50635 4.82623 9.56333 4.81188C10.3626 4.60654 11.1801 4.50377 12 4.50554C14.9067 4.50554 17.5475 5.74775 19.6383 8.0982C21.2075 9.86221 21.9133 11.6225 21.9425 11.6965C21.9804 11.7923 22 11.896 22 12.0009C22 12.1058 21.9804 12.2096 21.9425 12.3054C21.9133 12.3794 21.2075 14.1387 19.6383 15.9027C19.4006 16.1688 19.1564 16.4208 18.9058 16.6587C18.8399 16.7217 18.7548 16.7533 18.6685 16.747C18.5822 16.7407 18.5015 16.697 18.4433 16.625L9.39 5.43017ZM19.16 19.7399C19.2201 19.8125 19.2668 19.8978 19.2974 19.9908C19.328 20.0838 19.3418 20.1828 19.3381 20.2818C19.3345 20.3809 19.3133 20.4782 19.2759 20.568C19.2386 20.6579 19.1857 20.7385 19.1204 20.8052C19.0551 20.8719 18.9787 20.9234 18.8956 20.9566C18.8125 20.9899 18.7243 21.0042 18.6362 20.9989C18.5481 20.9936 18.4619 20.9687 18.3824 20.9256C18.3029 20.8825 18.2319 20.8221 18.1733 20.7479L16.3333 18.4761C14.9687 19.1546 13.4921 19.5016 12 19.4945C9.09333 19.4945 6.4525 18.2523 4.36166 15.9027C2.79249 14.1387 2.08333 12.3794 2.05749 12.3054C2.01959 12.2096 2 12.1058 2 12.0009C2 11.896 2.01959 11.7923 2.05749 11.6965C2.08333 11.6253 2.79249 9.86221 4.36166 8.0982C4.98857 7.3902 5.68789 6.7682 6.445 6.24519L4.83999 4.2601C4.77988 4.18751 4.73319 4.10223 4.70261 4.0092C4.67203 3.91617 4.65818 3.81725 4.66187 3.71816C4.66555 3.61907 4.68669 3.52179 4.72406 3.43196C4.76144 3.34212 4.8143 3.26152 4.87959 3.19482C4.94487 3.12812 5.02129 3.07665 5.1044 3.04339C5.18751 3.01014 5.27567 2.99575 5.36377 3.00108C5.45186 3.00641 5.53814 3.03134 5.61759 3.07443C5.69705 3.11752 5.76812 3.1779 5.82666 3.25209L19.16 19.7399ZM13.7025 15.2198L9.31166 9.78632C8.85922 10.4832 8.63455 11.3343 8.67558 12.1958C8.71661 13.0573 9.02084 13.8765 9.53689 14.5151C10.0529 15.1537 10.7492 15.5726 11.5081 15.7009C12.267 15.8293 13.0421 15.6594 13.7025 15.2198Z" fill="#787878"/>
</svg>
