<svg width="24" height="24" viewBox="0 0 24 24" fill="none" xmlns="http://www.w3.org/2000/svg">
<path d="M21.9425 12.1962C21.9133 12.1222 21.2075 10.3606 19.6383 8.59531C17.5475 6.24312 14.9067 5 12 5C9.09333 5 6.4525 6.24312 4.36166 8.59531C2.79249 10.3606 2.08333 12.125 2.05749 12.1962C2.01959 12.2922 2 12.396 2 12.5009C2 12.6059 2.01959 12.7097 2.05749 12.8056C2.08666 12.8797 2.79249 14.6403 4.36166 16.4056C6.4525 18.7569 9.09333 20 12 20C14.9067 20 17.5475 18.7569 19.6383 16.4056C21.2075 14.6403 21.9133 12.8797 21.9425 12.8056C21.9804 12.7097 22 12.6059 22 12.5009C22 12.396 21.9804 12.2922 21.9425 12.1962ZM12 16.25C11.3407 16.25 10.6963 16.0301 10.1481 15.618C9.59993 15.206 9.17269 14.6203 8.9204 13.9351C8.66811 13.2498 8.6021 12.4958 8.73071 11.7684C8.85933 11.041 9.1768 10.3728 9.64298 9.84835C10.1092 9.3239 10.7031 8.96675 11.3497 8.82205C11.9963 8.67736 12.6665 8.75162 13.2756 9.03545C13.8847 9.31928 14.4053 9.79993 14.7716 10.4166C15.1378 11.0333 15.3333 11.7583 15.3333 12.5C15.3333 13.4946 14.9821 14.4484 14.357 15.1517C13.7319 15.8549 12.8841 16.25 12 16.25Z" fill="#787878"/>
</svg>
