<svg width="24" height="24" viewBox="0 0 24 24" fill="none" xmlns="http://www.w3.org/2000/svg">
<path d="M20.5391 4.17401L2.78105 10.621C2.78105 10.621 1.94008 10.8872 2.0034 11.3786C2.06673 11.87 2.7555 12.0983 2.7555 12.0983L7.22251 13.4903L7.23474 13.4954H7.22251C7.22251 13.4954 8.57229 17.5881 8.83669 18.3663C9.10109 19.1446 9.31549 19.162 9.31549 19.162C9.39346 19.1886 9.47727 19.1971 9.55959 19.1867C9.64191 19.1763 9.72022 19.1474 9.78764 19.1024L12.676 16.667L17.1764 19.8601C17.3103 19.93 17.4578 19.9749 17.6105 19.9921C17.7631 20.0093 17.9179 19.9984 18.0661 19.9603C18.2142 19.9221 18.3528 19.8573 18.4738 19.7695C18.5949 19.6818 18.6961 19.5728 18.7717 19.4489C18.7959 19.4102 18.817 19.37 18.835 19.3286L22 4.57187C22 3.58597 20.5391 4.17401 20.5391 4.17401ZM18.3284 7.53062C17.9951 7.81745 9.90206 14.5502 9.90206 14.5502L9.4577 18.0456C8.90224 16.3524 8.329 14.6324 7.83352 13.1325L17.9496 7.18725C17.9496 7.18725 18.5695 6.83874 18.5473 7.18725C18.5495 7.18416 18.6595 7.24482 18.334 7.53062H18.3284Z" fill="black"/>
</svg>
